%TF.GenerationSoftware,KiCad,Pcbnew,(6.0.2)*%
%TF.CreationDate,2022-04-02T12:49:41+02:00*%
%TF.ProjectId,Power Bus,506f7765-7220-4427-9573-2e6b69636164,1*%
%TF.SameCoordinates,Original*%
%TF.FileFunction,Legend,Top*%
%TF.FilePolarity,Positive*%
%FSLAX46Y46*%
G04 Gerber Fmt 4.6, Leading zero omitted, Abs format (unit mm)*
G04 Created by KiCad (PCBNEW (6.0.2)) date 2022-04-02 12:49:41*
%MOMM*%
%LPD*%
G01*
G04 APERTURE LIST*
%ADD10C,0.300000*%
%ADD11C,0.150000*%
%ADD12C,0.120000*%
G04 APERTURE END LIST*
D10*
X87035714Y-105735714D02*
X86964285Y-105807142D01*
X86750000Y-105878571D01*
X86607142Y-105878571D01*
X86392857Y-105807142D01*
X86250000Y-105664285D01*
X86178571Y-105521428D01*
X86107142Y-105235714D01*
X86107142Y-105021428D01*
X86178571Y-104735714D01*
X86250000Y-104592857D01*
X86392857Y-104450000D01*
X86607142Y-104378571D01*
X86750000Y-104378571D01*
X86964285Y-104450000D01*
X87035714Y-104521428D01*
X87892857Y-105878571D02*
X87750000Y-105807142D01*
X87678571Y-105735714D01*
X87607142Y-105592857D01*
X87607142Y-105164285D01*
X87678571Y-105021428D01*
X87750000Y-104950000D01*
X87892857Y-104878571D01*
X88107142Y-104878571D01*
X88250000Y-104950000D01*
X88321428Y-105021428D01*
X88392857Y-105164285D01*
X88392857Y-105592857D01*
X88321428Y-105735714D01*
X88250000Y-105807142D01*
X88107142Y-105878571D01*
X87892857Y-105878571D01*
X89035714Y-105878571D02*
X89035714Y-104878571D01*
X89035714Y-105021428D02*
X89107142Y-104950000D01*
X89250000Y-104878571D01*
X89464285Y-104878571D01*
X89607142Y-104950000D01*
X89678571Y-105092857D01*
X89678571Y-105878571D01*
X89678571Y-105092857D02*
X89750000Y-104950000D01*
X89892857Y-104878571D01*
X90107142Y-104878571D01*
X90250000Y-104950000D01*
X90321428Y-105092857D01*
X90321428Y-105878571D01*
X91035714Y-104878571D02*
X91035714Y-106378571D01*
X91035714Y-104950000D02*
X91178571Y-104878571D01*
X91464285Y-104878571D01*
X91607142Y-104950000D01*
X91678571Y-105021428D01*
X91750000Y-105164285D01*
X91750000Y-105592857D01*
X91678571Y-105735714D01*
X91607142Y-105807142D01*
X91464285Y-105878571D01*
X91178571Y-105878571D01*
X91035714Y-105807142D01*
X92607142Y-105878571D02*
X92464285Y-105807142D01*
X92392857Y-105735714D01*
X92321428Y-105592857D01*
X92321428Y-105164285D01*
X92392857Y-105021428D01*
X92464285Y-104950000D01*
X92607142Y-104878571D01*
X92821428Y-104878571D01*
X92964285Y-104950000D01*
X93035714Y-105021428D01*
X93107142Y-105164285D01*
X93107142Y-105592857D01*
X93035714Y-105735714D01*
X92964285Y-105807142D01*
X92821428Y-105878571D01*
X92607142Y-105878571D01*
X93750000Y-104878571D02*
X93750000Y-105878571D01*
X93750000Y-105021428D02*
X93821428Y-104950000D01*
X93964285Y-104878571D01*
X94178571Y-104878571D01*
X94321428Y-104950000D01*
X94392857Y-105092857D01*
X94392857Y-105878571D01*
X95678571Y-105807142D02*
X95535714Y-105878571D01*
X95250000Y-105878571D01*
X95107142Y-105807142D01*
X95035714Y-105664285D01*
X95035714Y-105092857D01*
X95107142Y-104950000D01*
X95250000Y-104878571D01*
X95535714Y-104878571D01*
X95678571Y-104950000D01*
X95750000Y-105092857D01*
X95750000Y-105235714D01*
X95035714Y-105378571D01*
X96392857Y-104878571D02*
X96392857Y-105878571D01*
X96392857Y-105021428D02*
X96464285Y-104950000D01*
X96607142Y-104878571D01*
X96821428Y-104878571D01*
X96964285Y-104950000D01*
X97035714Y-105092857D01*
X97035714Y-105878571D01*
X97535714Y-104878571D02*
X98107142Y-104878571D01*
X97750000Y-104378571D02*
X97750000Y-105664285D01*
X97821428Y-105807142D01*
X97964285Y-105878571D01*
X98107142Y-105878571D01*
X99678571Y-105807142D02*
X99892857Y-105878571D01*
X100250000Y-105878571D01*
X100392857Y-105807142D01*
X100464285Y-105735714D01*
X100535714Y-105592857D01*
X100535714Y-105450000D01*
X100464285Y-105307142D01*
X100392857Y-105235714D01*
X100250000Y-105164285D01*
X99964285Y-105092857D01*
X99821428Y-105021428D01*
X99750000Y-104950000D01*
X99678571Y-104807142D01*
X99678571Y-104664285D01*
X99750000Y-104521428D01*
X99821428Y-104450000D01*
X99964285Y-104378571D01*
X100321428Y-104378571D01*
X100535714Y-104450000D01*
X101178571Y-105878571D02*
X101178571Y-104878571D01*
X101178571Y-104378571D02*
X101107142Y-104450000D01*
X101178571Y-104521428D01*
X101250000Y-104450000D01*
X101178571Y-104378571D01*
X101178571Y-104521428D01*
X102535714Y-105878571D02*
X102535714Y-104378571D01*
X102535714Y-105807142D02*
X102392857Y-105878571D01*
X102107142Y-105878571D01*
X101964285Y-105807142D01*
X101892857Y-105735714D01*
X101821428Y-105592857D01*
X101821428Y-105164285D01*
X101892857Y-105021428D01*
X101964285Y-104950000D01*
X102107142Y-104878571D01*
X102392857Y-104878571D01*
X102535714Y-104950000D01*
X103821428Y-105807142D02*
X103678571Y-105878571D01*
X103392857Y-105878571D01*
X103250000Y-105807142D01*
X103178571Y-105664285D01*
X103178571Y-105092857D01*
X103250000Y-104950000D01*
X103392857Y-104878571D01*
X103678571Y-104878571D01*
X103821428Y-104950000D01*
X103892857Y-105092857D01*
X103892857Y-105235714D01*
X103178571Y-105378571D01*
X231900000Y-105878571D02*
X231400000Y-105164285D01*
X231042857Y-105878571D02*
X231042857Y-104378571D01*
X231614285Y-104378571D01*
X231757142Y-104450000D01*
X231828571Y-104521428D01*
X231900000Y-104664285D01*
X231900000Y-104878571D01*
X231828571Y-105021428D01*
X231757142Y-105092857D01*
X231614285Y-105164285D01*
X231042857Y-105164285D01*
X232328571Y-104378571D02*
X233185714Y-104378571D01*
X232757142Y-105878571D02*
X232757142Y-104378571D01*
X233471428Y-104378571D02*
X234328571Y-104378571D01*
X233900000Y-105878571D02*
X233900000Y-104378571D01*
X235971428Y-105878571D02*
X235971428Y-104378571D01*
X236542857Y-104378571D01*
X236685714Y-104450000D01*
X236757142Y-104521428D01*
X236828571Y-104664285D01*
X236828571Y-104878571D01*
X236757142Y-105021428D01*
X236685714Y-105092857D01*
X236542857Y-105164285D01*
X235971428Y-105164285D01*
X237971428Y-105092857D02*
X238185714Y-105164285D01*
X238257142Y-105235714D01*
X238328571Y-105378571D01*
X238328571Y-105592857D01*
X238257142Y-105735714D01*
X238185714Y-105807142D01*
X238042857Y-105878571D01*
X237471428Y-105878571D01*
X237471428Y-104378571D01*
X237971428Y-104378571D01*
X238114285Y-104450000D01*
X238185714Y-104521428D01*
X238257142Y-104664285D01*
X238257142Y-104807142D01*
X238185714Y-104950000D01*
X238114285Y-105021428D01*
X237971428Y-105092857D01*
X237471428Y-105092857D01*
X239471428Y-105092857D02*
X239685714Y-105164285D01*
X239757142Y-105235714D01*
X239828571Y-105378571D01*
X239828571Y-105592857D01*
X239757142Y-105735714D01*
X239685714Y-105807142D01*
X239542857Y-105878571D01*
X238971428Y-105878571D01*
X238971428Y-104378571D01*
X239471428Y-104378571D01*
X239614285Y-104450000D01*
X239685714Y-104521428D01*
X239757142Y-104664285D01*
X239757142Y-104807142D01*
X239685714Y-104950000D01*
X239614285Y-105021428D01*
X239471428Y-105092857D01*
X238971428Y-105092857D01*
X242400000Y-105878571D02*
X241542857Y-105878571D01*
X241971428Y-105878571D02*
X241971428Y-104378571D01*
X241828571Y-104592857D01*
X241685714Y-104735714D01*
X241542857Y-104807142D01*
X243328571Y-104378571D02*
X243471428Y-104378571D01*
X243614285Y-104450000D01*
X243685714Y-104521428D01*
X243757142Y-104664285D01*
X243828571Y-104950000D01*
X243828571Y-105307142D01*
X243757142Y-105592857D01*
X243685714Y-105735714D01*
X243614285Y-105807142D01*
X243471428Y-105878571D01*
X243328571Y-105878571D01*
X243185714Y-105807142D01*
X243114285Y-105735714D01*
X243042857Y-105592857D01*
X242971428Y-105307142D01*
X242971428Y-104950000D01*
X243042857Y-104664285D01*
X243114285Y-104521428D01*
X243185714Y-104450000D01*
X243328571Y-104378571D01*
X160893705Y-105878571D02*
X160991919Y-105092857D01*
X160938348Y-104950000D01*
X160804419Y-104878571D01*
X160518705Y-104878571D01*
X160366919Y-104950000D01*
X160902633Y-105807142D02*
X160750848Y-105878571D01*
X160393705Y-105878571D01*
X160259776Y-105807142D01*
X160206205Y-105664285D01*
X160224062Y-105521428D01*
X160313348Y-105378571D01*
X160465133Y-105307142D01*
X160822276Y-105307142D01*
X160974062Y-105235714D01*
X162465133Y-105878571D02*
X162054419Y-105164285D01*
X161607991Y-105878571D02*
X161795491Y-104378571D01*
X162366919Y-104378571D01*
X162500848Y-104450000D01*
X162563348Y-104521428D01*
X162616919Y-104664285D01*
X162590133Y-104878571D01*
X162500848Y-105021428D01*
X162420491Y-105092857D01*
X162268705Y-105164285D01*
X161697276Y-105164285D01*
X163081205Y-104378571D02*
X163938348Y-104378571D01*
X163322276Y-105878571D02*
X163509776Y-104378571D01*
X164232991Y-104878571D02*
X164465133Y-105878571D01*
X164947276Y-104878571D02*
X164465133Y-105878571D01*
X164277633Y-106235714D01*
X164197276Y-106307142D01*
X164045491Y-106378571D01*
X165366919Y-104378571D02*
X166224062Y-104378571D01*
X165607991Y-105878571D02*
X165795491Y-104378571D01*
X167116919Y-105807142D02*
X166965133Y-105878571D01*
X166679419Y-105878571D01*
X166545491Y-105807142D01*
X166491919Y-105664285D01*
X166563348Y-105092857D01*
X166652633Y-104950000D01*
X166804419Y-104878571D01*
X167090133Y-104878571D01*
X167224062Y-104950000D01*
X167277633Y-105092857D01*
X167259776Y-105235714D01*
X166527633Y-105378571D01*
X168465133Y-105878571D02*
X168563348Y-105092857D01*
X168509776Y-104950000D01*
X168375848Y-104878571D01*
X168090133Y-104878571D01*
X167938348Y-104950000D01*
X168474062Y-105807142D02*
X168322276Y-105878571D01*
X167965133Y-105878571D01*
X167831205Y-105807142D01*
X167777633Y-105664285D01*
X167795491Y-105521428D01*
X167884776Y-105378571D01*
X168036562Y-105307142D01*
X168393705Y-105307142D01*
X168545491Y-105235714D01*
X170322276Y-105878571D02*
X170509776Y-104378571D01*
X170875848Y-105450000D01*
X171509776Y-104378571D01*
X171322276Y-105878571D01*
X172804419Y-104878571D02*
X172679419Y-105878571D01*
X172161562Y-104878571D02*
X172063348Y-105664285D01*
X172116919Y-105807142D01*
X172250848Y-105878571D01*
X172465133Y-105878571D01*
X172616919Y-105807142D01*
X172697276Y-105735714D01*
X173331205Y-105807142D02*
X173465133Y-105878571D01*
X173750848Y-105878571D01*
X173902633Y-105807142D01*
X173991919Y-105664285D01*
X174000848Y-105592857D01*
X173947276Y-105450000D01*
X173813348Y-105378571D01*
X173599062Y-105378571D01*
X173465133Y-105307142D01*
X173411562Y-105164285D01*
X173420491Y-105092857D01*
X173509776Y-104950000D01*
X173661562Y-104878571D01*
X173875848Y-104878571D01*
X174009776Y-104950000D01*
X174607991Y-105878571D02*
X174732991Y-104878571D01*
X174795491Y-104378571D02*
X174715133Y-104450000D01*
X174777633Y-104521428D01*
X174857991Y-104450000D01*
X174795491Y-104378571D01*
X174777633Y-104521428D01*
X175974062Y-105807142D02*
X175822276Y-105878571D01*
X175536562Y-105878571D01*
X175402633Y-105807142D01*
X175340133Y-105735714D01*
X175286562Y-105592857D01*
X175340133Y-105164285D01*
X175429419Y-105021428D01*
X175509776Y-104950000D01*
X175661562Y-104878571D01*
X175947276Y-104878571D01*
X176081205Y-104950000D01*
X177849062Y-105092857D02*
X178349062Y-105092857D01*
X178465133Y-105878571D02*
X177750848Y-105878571D01*
X177938348Y-104378571D01*
X178652633Y-104378571D01*
X179322276Y-105878571D02*
X179188348Y-105807142D01*
X179134776Y-105664285D01*
X179295491Y-104378571D01*
X180474062Y-105807142D02*
X180322276Y-105878571D01*
X180036562Y-105878571D01*
X179902633Y-105807142D01*
X179849062Y-105664285D01*
X179920491Y-105092857D01*
X180009776Y-104950000D01*
X180161562Y-104878571D01*
X180447276Y-104878571D01*
X180581205Y-104950000D01*
X180634776Y-105092857D01*
X180616919Y-105235714D01*
X179884776Y-105378571D01*
X181831205Y-105807142D02*
X181679419Y-105878571D01*
X181393705Y-105878571D01*
X181259776Y-105807142D01*
X181197276Y-105735714D01*
X181143705Y-105592857D01*
X181197276Y-105164285D01*
X181286562Y-105021428D01*
X181366919Y-104950000D01*
X181518705Y-104878571D01*
X181804419Y-104878571D01*
X181938348Y-104950000D01*
X182375848Y-104878571D02*
X182947276Y-104878571D01*
X182652633Y-104378571D02*
X182491919Y-105664285D01*
X182545491Y-105807142D01*
X182679419Y-105878571D01*
X182822276Y-105878571D01*
X183322276Y-105878571D02*
X183447276Y-104878571D01*
X183411562Y-105164285D02*
X183500848Y-105021428D01*
X183581205Y-104950000D01*
X183732991Y-104878571D01*
X183875848Y-104878571D01*
X184465133Y-105878571D02*
X184331205Y-105807142D01*
X184268705Y-105735714D01*
X184215133Y-105592857D01*
X184268705Y-105164285D01*
X184357991Y-105021428D01*
X184438348Y-104950000D01*
X184590133Y-104878571D01*
X184804419Y-104878571D01*
X184938348Y-104950000D01*
X185000848Y-105021428D01*
X185054419Y-105164285D01*
X185000848Y-105592857D01*
X184911562Y-105735714D01*
X184831205Y-105807142D01*
X184679419Y-105878571D01*
X184465133Y-105878571D01*
X185732991Y-104878571D02*
X185607991Y-105878571D01*
X185715133Y-105021428D02*
X185795491Y-104950000D01*
X185947276Y-104878571D01*
X186161562Y-104878571D01*
X186295491Y-104950000D01*
X186349062Y-105092857D01*
X186250848Y-105878571D01*
X186965133Y-105878571D02*
X187090133Y-104878571D01*
X187152633Y-104378571D02*
X187072276Y-104450000D01*
X187134776Y-104521428D01*
X187215133Y-104450000D01*
X187152633Y-104378571D01*
X187134776Y-104521428D01*
X188331205Y-105807142D02*
X188179419Y-105878571D01*
X187893705Y-105878571D01*
X187759776Y-105807142D01*
X187697276Y-105735714D01*
X187643705Y-105592857D01*
X187697276Y-105164285D01*
X187786562Y-105021428D01*
X187866919Y-104950000D01*
X188018705Y-104878571D01*
X188304419Y-104878571D01*
X188438348Y-104950000D01*
X188902633Y-105807142D02*
X189036562Y-105878571D01*
X189322276Y-105878571D01*
X189474062Y-105807142D01*
X189563348Y-105664285D01*
X189572276Y-105592857D01*
X189518705Y-105450000D01*
X189384776Y-105378571D01*
X189170491Y-105378571D01*
X189036562Y-105307142D01*
X188982991Y-105164285D01*
X188991919Y-105092857D01*
X189081205Y-104950000D01*
X189232991Y-104878571D01*
X189447276Y-104878571D01*
X189581205Y-104950000D01*
D11*
%TO.C,J5*%
X224396666Y-139442380D02*
X224396666Y-140156666D01*
X224349047Y-140299523D01*
X224253809Y-140394761D01*
X224110952Y-140442380D01*
X224015714Y-140442380D01*
X225349047Y-139442380D02*
X224872857Y-139442380D01*
X224825238Y-139918571D01*
X224872857Y-139870952D01*
X224968095Y-139823333D01*
X225206190Y-139823333D01*
X225301428Y-139870952D01*
X225349047Y-139918571D01*
X225396666Y-140013809D01*
X225396666Y-140251904D01*
X225349047Y-140347142D01*
X225301428Y-140394761D01*
X225206190Y-140442380D01*
X224968095Y-140442380D01*
X224872857Y-140394761D01*
X224825238Y-140347142D01*
%TO.C,J10*%
X73920476Y-139552380D02*
X73920476Y-140266666D01*
X73872857Y-140409523D01*
X73777619Y-140504761D01*
X73634761Y-140552380D01*
X73539523Y-140552380D01*
X74920476Y-140552380D02*
X74349047Y-140552380D01*
X74634761Y-140552380D02*
X74634761Y-139552380D01*
X74539523Y-139695238D01*
X74444285Y-139790476D01*
X74349047Y-139838095D01*
X75539523Y-139552380D02*
X75634761Y-139552380D01*
X75730000Y-139600000D01*
X75777619Y-139647619D01*
X75825238Y-139742857D01*
X75872857Y-139933333D01*
X75872857Y-140171428D01*
X75825238Y-140361904D01*
X75777619Y-140457142D01*
X75730000Y-140504761D01*
X75634761Y-140552380D01*
X75539523Y-140552380D01*
X75444285Y-140504761D01*
X75396666Y-140457142D01*
X75349047Y-140361904D01*
X75301428Y-140171428D01*
X75301428Y-139933333D01*
X75349047Y-139742857D01*
X75396666Y-139647619D01*
X75444285Y-139600000D01*
X75539523Y-139552380D01*
%TO.C,J9*%
X104396666Y-139552380D02*
X104396666Y-140266666D01*
X104349047Y-140409523D01*
X104253809Y-140504761D01*
X104110952Y-140552380D01*
X104015714Y-140552380D01*
X104920476Y-140552380D02*
X105110952Y-140552380D01*
X105206190Y-140504761D01*
X105253809Y-140457142D01*
X105349047Y-140314285D01*
X105396666Y-140123809D01*
X105396666Y-139742857D01*
X105349047Y-139647619D01*
X105301428Y-139600000D01*
X105206190Y-139552380D01*
X105015714Y-139552380D01*
X104920476Y-139600000D01*
X104872857Y-139647619D01*
X104825238Y-139742857D01*
X104825238Y-139980952D01*
X104872857Y-140076190D01*
X104920476Y-140123809D01*
X105015714Y-140171428D01*
X105206190Y-140171428D01*
X105301428Y-140123809D01*
X105349047Y-140076190D01*
X105396666Y-139980952D01*
%TO.C,J8*%
X134396666Y-139552380D02*
X134396666Y-140266666D01*
X134349047Y-140409523D01*
X134253809Y-140504761D01*
X134110952Y-140552380D01*
X134015714Y-140552380D01*
X135015714Y-139980952D02*
X134920476Y-139933333D01*
X134872857Y-139885714D01*
X134825238Y-139790476D01*
X134825238Y-139742857D01*
X134872857Y-139647619D01*
X134920476Y-139600000D01*
X135015714Y-139552380D01*
X135206190Y-139552380D01*
X135301428Y-139600000D01*
X135349047Y-139647619D01*
X135396666Y-139742857D01*
X135396666Y-139790476D01*
X135349047Y-139885714D01*
X135301428Y-139933333D01*
X135206190Y-139980952D01*
X135015714Y-139980952D01*
X134920476Y-140028571D01*
X134872857Y-140076190D01*
X134825238Y-140171428D01*
X134825238Y-140361904D01*
X134872857Y-140457142D01*
X134920476Y-140504761D01*
X135015714Y-140552380D01*
X135206190Y-140552380D01*
X135301428Y-140504761D01*
X135349047Y-140457142D01*
X135396666Y-140361904D01*
X135396666Y-140171428D01*
X135349047Y-140076190D01*
X135301428Y-140028571D01*
X135206190Y-139980952D01*
%TO.C,J7*%
X164936666Y-139552380D02*
X164936666Y-140266666D01*
X164889047Y-140409523D01*
X164793809Y-140504761D01*
X164650952Y-140552380D01*
X164555714Y-140552380D01*
X165317619Y-139552380D02*
X165984285Y-139552380D01*
X165555714Y-140552380D01*
%TO.C,J6*%
X195149166Y-139442380D02*
X195149166Y-140156666D01*
X195101547Y-140299523D01*
X195006309Y-140394761D01*
X194863452Y-140442380D01*
X194768214Y-140442380D01*
X196053928Y-139442380D02*
X195863452Y-139442380D01*
X195768214Y-139490000D01*
X195720595Y-139537619D01*
X195625357Y-139680476D01*
X195577738Y-139870952D01*
X195577738Y-140251904D01*
X195625357Y-140347142D01*
X195672976Y-140394761D01*
X195768214Y-140442380D01*
X195958690Y-140442380D01*
X196053928Y-140394761D01*
X196101547Y-140347142D01*
X196149166Y-140251904D01*
X196149166Y-140013809D01*
X196101547Y-139918571D01*
X196053928Y-139870952D01*
X195958690Y-139823333D01*
X195768214Y-139823333D01*
X195672976Y-139870952D01*
X195625357Y-139918571D01*
X195577738Y-140013809D01*
%TO.C,J4*%
X255149166Y-139442380D02*
X255149166Y-140156666D01*
X255101547Y-140299523D01*
X255006309Y-140394761D01*
X254863452Y-140442380D01*
X254768214Y-140442380D01*
X256053928Y-139775714D02*
X256053928Y-140442380D01*
X255815833Y-139394761D02*
X255577738Y-140109047D01*
X256196785Y-140109047D01*
%TO.C,J3*%
X284936666Y-139442380D02*
X284936666Y-140156666D01*
X284889047Y-140299523D01*
X284793809Y-140394761D01*
X284650952Y-140442380D01*
X284555714Y-140442380D01*
X285317619Y-139442380D02*
X285936666Y-139442380D01*
X285603333Y-139823333D01*
X285746190Y-139823333D01*
X285841428Y-139870952D01*
X285889047Y-139918571D01*
X285936666Y-140013809D01*
X285936666Y-140251904D01*
X285889047Y-140347142D01*
X285841428Y-140394761D01*
X285746190Y-140442380D01*
X285460476Y-140442380D01*
X285365238Y-140394761D01*
X285317619Y-140347142D01*
%TO.C,J2*%
X315149166Y-139442380D02*
X315149166Y-140156666D01*
X315101547Y-140299523D01*
X315006309Y-140394761D01*
X314863452Y-140442380D01*
X314768214Y-140442380D01*
X315577738Y-139537619D02*
X315625357Y-139490000D01*
X315720595Y-139442380D01*
X315958690Y-139442380D01*
X316053928Y-139490000D01*
X316101547Y-139537619D01*
X316149166Y-139632857D01*
X316149166Y-139728095D01*
X316101547Y-139870952D01*
X315530119Y-140442380D01*
X316149166Y-140442380D01*
%TO.C,J1*%
X343396666Y-139552380D02*
X343396666Y-140266666D01*
X343349047Y-140409523D01*
X343253809Y-140504761D01*
X343110952Y-140552380D01*
X343015714Y-140552380D01*
X344396666Y-140552380D02*
X343825238Y-140552380D01*
X344110952Y-140552380D02*
X344110952Y-139552380D01*
X344015714Y-139695238D01*
X343920476Y-139790476D01*
X343825238Y-139838095D01*
%TO.C,TP4*%
X52738095Y-138571428D02*
X53500000Y-138571428D01*
X54500000Y-138952380D02*
X53928571Y-138952380D01*
X54214285Y-138952380D02*
X54214285Y-137952380D01*
X54119047Y-138095238D01*
X54023809Y-138190476D01*
X53928571Y-138238095D01*
X54880952Y-138047619D02*
X54928571Y-138000000D01*
X55023809Y-137952380D01*
X55261904Y-137952380D01*
X55357142Y-138000000D01*
X55404761Y-138047619D01*
X55452380Y-138142857D01*
X55452380Y-138238095D01*
X55404761Y-138380952D01*
X54833333Y-138952380D01*
X55452380Y-138952380D01*
X55738095Y-137952380D02*
X56071428Y-138952380D01*
X56404761Y-137952380D01*
%TO.C,TP3*%
X52785714Y-119071428D02*
X53547619Y-119071428D01*
X53166666Y-119452380D02*
X53166666Y-118690476D01*
X54547619Y-119452380D02*
X53976190Y-119452380D01*
X54261904Y-119452380D02*
X54261904Y-118452380D01*
X54166666Y-118595238D01*
X54071428Y-118690476D01*
X53976190Y-118738095D01*
X54928571Y-118547619D02*
X54976190Y-118500000D01*
X55071428Y-118452380D01*
X55309523Y-118452380D01*
X55404761Y-118500000D01*
X55452380Y-118547619D01*
X55500000Y-118642857D01*
X55500000Y-118738095D01*
X55452380Y-118880952D01*
X54880952Y-119452380D01*
X55500000Y-119452380D01*
X55833333Y-118785714D02*
X56071428Y-119452380D01*
X56309523Y-118785714D01*
%TO.C,TP2*%
X53261904Y-113241428D02*
X54023809Y-113241428D01*
X53642857Y-113622380D02*
X53642857Y-112860476D01*
X54976190Y-112622380D02*
X54500000Y-112622380D01*
X54452380Y-113098571D01*
X54500000Y-113050952D01*
X54595238Y-113003333D01*
X54833333Y-113003333D01*
X54928571Y-113050952D01*
X54976190Y-113098571D01*
X55023809Y-113193809D01*
X55023809Y-113431904D01*
X54976190Y-113527142D01*
X54928571Y-113574761D01*
X54833333Y-113622380D01*
X54595238Y-113622380D01*
X54500000Y-113574761D01*
X54452380Y-113527142D01*
X55357142Y-112955714D02*
X55595238Y-113622380D01*
X55833333Y-112955714D01*
%TO.C,TP1*%
X53738095Y-127170000D02*
X53642857Y-127122380D01*
X53500000Y-127122380D01*
X53357142Y-127170000D01*
X53261904Y-127265238D01*
X53214285Y-127360476D01*
X53166666Y-127550952D01*
X53166666Y-127693809D01*
X53214285Y-127884285D01*
X53261904Y-127979523D01*
X53357142Y-128074761D01*
X53500000Y-128122380D01*
X53595238Y-128122380D01*
X53738095Y-128074761D01*
X53785714Y-128027142D01*
X53785714Y-127693809D01*
X53595238Y-127693809D01*
X54214285Y-128122380D02*
X54214285Y-127122380D01*
X54785714Y-128122380D01*
X54785714Y-127122380D01*
X55261904Y-128122380D02*
X55261904Y-127122380D01*
X55500000Y-127122380D01*
X55642857Y-127170000D01*
X55738095Y-127265238D01*
X55785714Y-127360476D01*
X55833333Y-127550952D01*
X55833333Y-127693809D01*
X55785714Y-127884285D01*
X55738095Y-127979523D01*
X55642857Y-128074761D01*
X55500000Y-128122380D01*
X55261904Y-128122380D01*
%TO.C,D3*%
X60761904Y-133452380D02*
X60761904Y-132452380D01*
X61000000Y-132452380D01*
X61142857Y-132500000D01*
X61238095Y-132595238D01*
X61285714Y-132690476D01*
X61333333Y-132880952D01*
X61333333Y-133023809D01*
X61285714Y-133214285D01*
X61238095Y-133309523D01*
X61142857Y-133404761D01*
X61000000Y-133452380D01*
X60761904Y-133452380D01*
X61666666Y-132452380D02*
X62285714Y-132452380D01*
X61952380Y-132833333D01*
X62095238Y-132833333D01*
X62190476Y-132880952D01*
X62238095Y-132928571D01*
X62285714Y-133023809D01*
X62285714Y-133261904D01*
X62238095Y-133357142D01*
X62190476Y-133404761D01*
X62095238Y-133452380D01*
X61809523Y-133452380D01*
X61714285Y-133404761D01*
X61666666Y-133357142D01*
X60857142Y-139952380D02*
X60523809Y-139476190D01*
X60285714Y-139952380D02*
X60285714Y-138952380D01*
X60666666Y-138952380D01*
X60761904Y-139000000D01*
X60809523Y-139047619D01*
X60857142Y-139142857D01*
X60857142Y-139285714D01*
X60809523Y-139380952D01*
X60761904Y-139428571D01*
X60666666Y-139476190D01*
X60285714Y-139476190D01*
X61285714Y-139428571D02*
X61619047Y-139428571D01*
X61761904Y-139952380D02*
X61285714Y-139952380D01*
X61285714Y-138952380D01*
X61761904Y-138952380D01*
X62190476Y-139952380D02*
X62190476Y-138952380D01*
X62428571Y-138952380D01*
X62571428Y-139000000D01*
X62666666Y-139095238D01*
X62714285Y-139190476D01*
X62761904Y-139380952D01*
X62761904Y-139523809D01*
X62714285Y-139714285D01*
X62666666Y-139809523D01*
X62571428Y-139904761D01*
X62428571Y-139952380D01*
X62190476Y-139952380D01*
%TO.C,D2*%
X63761904Y-128952380D02*
X63761904Y-127952380D01*
X64000000Y-127952380D01*
X64142857Y-128000000D01*
X64238095Y-128095238D01*
X64285714Y-128190476D01*
X64333333Y-128380952D01*
X64333333Y-128523809D01*
X64285714Y-128714285D01*
X64238095Y-128809523D01*
X64142857Y-128904761D01*
X64000000Y-128952380D01*
X63761904Y-128952380D01*
X64714285Y-128047619D02*
X64761904Y-128000000D01*
X64857142Y-127952380D01*
X65095238Y-127952380D01*
X65190476Y-128000000D01*
X65238095Y-128047619D01*
X65285714Y-128142857D01*
X65285714Y-128238095D01*
X65238095Y-128380952D01*
X64666666Y-128952380D01*
X65285714Y-128952380D01*
X59000000Y-129727380D02*
X59190476Y-129727380D01*
X59285714Y-129775000D01*
X59380952Y-129870238D01*
X59428571Y-130060714D01*
X59428571Y-130394047D01*
X59380952Y-130584523D01*
X59285714Y-130679761D01*
X59190476Y-130727380D01*
X59000000Y-130727380D01*
X58904761Y-130679761D01*
X58809523Y-130584523D01*
X58761904Y-130394047D01*
X58761904Y-130060714D01*
X58809523Y-129870238D01*
X58904761Y-129775000D01*
X59000000Y-129727380D01*
X60428571Y-130727380D02*
X60095238Y-130251190D01*
X59857142Y-130727380D02*
X59857142Y-129727380D01*
X60238095Y-129727380D01*
X60333333Y-129775000D01*
X60380952Y-129822619D01*
X60428571Y-129917857D01*
X60428571Y-130060714D01*
X60380952Y-130155952D01*
X60333333Y-130203571D01*
X60238095Y-130251190D01*
X59857142Y-130251190D01*
X60809523Y-130441666D02*
X61285714Y-130441666D01*
X60714285Y-130727380D02*
X61047619Y-129727380D01*
X61380952Y-130727380D01*
X61714285Y-130727380D02*
X61714285Y-129727380D01*
X62285714Y-130727380D01*
X62285714Y-129727380D01*
X63285714Y-129775000D02*
X63190476Y-129727380D01*
X63047619Y-129727380D01*
X62904761Y-129775000D01*
X62809523Y-129870238D01*
X62761904Y-129965476D01*
X62714285Y-130155952D01*
X62714285Y-130298809D01*
X62761904Y-130489285D01*
X62809523Y-130584523D01*
X62904761Y-130679761D01*
X63047619Y-130727380D01*
X63142857Y-130727380D01*
X63285714Y-130679761D01*
X63333333Y-130632142D01*
X63333333Y-130298809D01*
X63142857Y-130298809D01*
X63761904Y-130203571D02*
X64095238Y-130203571D01*
X64238095Y-130727380D02*
X63761904Y-130727380D01*
X63761904Y-129727380D01*
X64238095Y-129727380D01*
%TO.C,D1*%
X60761904Y-112952380D02*
X60761904Y-111952380D01*
X61000000Y-111952380D01*
X61142857Y-112000000D01*
X61238095Y-112095238D01*
X61285714Y-112190476D01*
X61333333Y-112380952D01*
X61333333Y-112523809D01*
X61285714Y-112714285D01*
X61238095Y-112809523D01*
X61142857Y-112904761D01*
X61000000Y-112952380D01*
X60761904Y-112952380D01*
X62285714Y-112952380D02*
X61714285Y-112952380D01*
X62000000Y-112952380D02*
X62000000Y-111952380D01*
X61904761Y-112095238D01*
X61809523Y-112190476D01*
X61714285Y-112238095D01*
X59833333Y-118500000D02*
X59738095Y-118452380D01*
X59595238Y-118452380D01*
X59452380Y-118500000D01*
X59357142Y-118595238D01*
X59309523Y-118690476D01*
X59261904Y-118880952D01*
X59261904Y-119023809D01*
X59309523Y-119214285D01*
X59357142Y-119309523D01*
X59452380Y-119404761D01*
X59595238Y-119452380D01*
X59690476Y-119452380D01*
X59833333Y-119404761D01*
X59880952Y-119357142D01*
X59880952Y-119023809D01*
X59690476Y-119023809D01*
X60880952Y-119452380D02*
X60547619Y-118976190D01*
X60309523Y-119452380D02*
X60309523Y-118452380D01*
X60690476Y-118452380D01*
X60785714Y-118500000D01*
X60833333Y-118547619D01*
X60880952Y-118642857D01*
X60880952Y-118785714D01*
X60833333Y-118880952D01*
X60785714Y-118928571D01*
X60690476Y-118976190D01*
X60309523Y-118976190D01*
X61309523Y-118928571D02*
X61642857Y-118928571D01*
X61785714Y-119452380D02*
X61309523Y-119452380D01*
X61309523Y-118452380D01*
X61785714Y-118452380D01*
X62214285Y-118928571D02*
X62547619Y-118928571D01*
X62690476Y-119452380D02*
X62214285Y-119452380D01*
X62214285Y-118452380D01*
X62690476Y-118452380D01*
X63119047Y-119452380D02*
X63119047Y-118452380D01*
X63690476Y-119452380D01*
X63690476Y-118452380D01*
%TO.C,R3*%
X68333333Y-138952380D02*
X68000000Y-138476190D01*
X67761904Y-138952380D02*
X67761904Y-137952380D01*
X68142857Y-137952380D01*
X68238095Y-138000000D01*
X68285714Y-138047619D01*
X68333333Y-138142857D01*
X68333333Y-138285714D01*
X68285714Y-138380952D01*
X68238095Y-138428571D01*
X68142857Y-138476190D01*
X67761904Y-138476190D01*
X68666666Y-137952380D02*
X69285714Y-137952380D01*
X68952380Y-138333333D01*
X69095238Y-138333333D01*
X69190476Y-138380952D01*
X69238095Y-138428571D01*
X69285714Y-138523809D01*
X69285714Y-138761904D01*
X69238095Y-138857142D01*
X69190476Y-138904761D01*
X69095238Y-138952380D01*
X68809523Y-138952380D01*
X68714285Y-138904761D01*
X68666666Y-138857142D01*
X65452380Y-136714285D02*
X65452380Y-137190476D01*
X65928571Y-137238095D01*
X65880952Y-137190476D01*
X65833333Y-137095238D01*
X65833333Y-136857142D01*
X65880952Y-136761904D01*
X65928571Y-136714285D01*
X66023809Y-136666666D01*
X66261904Y-136666666D01*
X66357142Y-136714285D01*
X66404761Y-136761904D01*
X66452380Y-136857142D01*
X66452380Y-137095238D01*
X66404761Y-137190476D01*
X66357142Y-137238095D01*
X65452380Y-135809523D02*
X65452380Y-136000000D01*
X65500000Y-136095238D01*
X65547619Y-136142857D01*
X65690476Y-136238095D01*
X65880952Y-136285714D01*
X66261904Y-136285714D01*
X66357142Y-136238095D01*
X66404761Y-136190476D01*
X66452380Y-136095238D01*
X66452380Y-135904761D01*
X66404761Y-135809523D01*
X66357142Y-135761904D01*
X66261904Y-135714285D01*
X66023809Y-135714285D01*
X65928571Y-135761904D01*
X65880952Y-135809523D01*
X65833333Y-135904761D01*
X65833333Y-136095238D01*
X65880952Y-136190476D01*
X65928571Y-136238095D01*
X66023809Y-136285714D01*
X65452380Y-135095238D02*
X65452380Y-135000000D01*
X65500000Y-134904761D01*
X65547619Y-134857142D01*
X65642857Y-134809523D01*
X65833333Y-134761904D01*
X66071428Y-134761904D01*
X66261904Y-134809523D01*
X66357142Y-134857142D01*
X66404761Y-134904761D01*
X66452380Y-135000000D01*
X66452380Y-135095238D01*
X66404761Y-135190476D01*
X66357142Y-135238095D01*
X66261904Y-135285714D01*
X66071428Y-135333333D01*
X65833333Y-135333333D01*
X65642857Y-135285714D01*
X65547619Y-135238095D01*
X65500000Y-135190476D01*
X65452380Y-135095238D01*
%TO.C,R2*%
X65333333Y-124952380D02*
X65000000Y-124476190D01*
X64761904Y-124952380D02*
X64761904Y-123952380D01*
X65142857Y-123952380D01*
X65238095Y-124000000D01*
X65285714Y-124047619D01*
X65333333Y-124142857D01*
X65333333Y-124285714D01*
X65285714Y-124380952D01*
X65238095Y-124428571D01*
X65142857Y-124476190D01*
X64761904Y-124476190D01*
X65714285Y-124047619D02*
X65761904Y-124000000D01*
X65857142Y-123952380D01*
X66095238Y-123952380D01*
X66190476Y-124000000D01*
X66238095Y-124047619D01*
X66285714Y-124142857D01*
X66285714Y-124238095D01*
X66238095Y-124380952D01*
X65666666Y-124952380D01*
X66285714Y-124952380D01*
X62285714Y-121952380D02*
X61809523Y-121952380D01*
X61761904Y-122428571D01*
X61809523Y-122380952D01*
X61904761Y-122333333D01*
X62142857Y-122333333D01*
X62238095Y-122380952D01*
X62285714Y-122428571D01*
X62333333Y-122523809D01*
X62333333Y-122761904D01*
X62285714Y-122857142D01*
X62238095Y-122904761D01*
X62142857Y-122952380D01*
X61904761Y-122952380D01*
X61809523Y-122904761D01*
X61761904Y-122857142D01*
X63190476Y-121952380D02*
X63000000Y-121952380D01*
X62904761Y-122000000D01*
X62857142Y-122047619D01*
X62761904Y-122190476D01*
X62714285Y-122380952D01*
X62714285Y-122761904D01*
X62761904Y-122857142D01*
X62809523Y-122904761D01*
X62904761Y-122952380D01*
X63095238Y-122952380D01*
X63190476Y-122904761D01*
X63238095Y-122857142D01*
X63285714Y-122761904D01*
X63285714Y-122523809D01*
X63238095Y-122428571D01*
X63190476Y-122380952D01*
X63095238Y-122333333D01*
X62904761Y-122333333D01*
X62809523Y-122380952D01*
X62761904Y-122428571D01*
X62714285Y-122523809D01*
X63904761Y-121952380D02*
X64000000Y-121952380D01*
X64095238Y-122000000D01*
X64142857Y-122047619D01*
X64190476Y-122142857D01*
X64238095Y-122333333D01*
X64238095Y-122571428D01*
X64190476Y-122761904D01*
X64142857Y-122857142D01*
X64095238Y-122904761D01*
X64000000Y-122952380D01*
X63904761Y-122952380D01*
X63809523Y-122904761D01*
X63761904Y-122857142D01*
X63714285Y-122761904D01*
X63666666Y-122571428D01*
X63666666Y-122333333D01*
X63714285Y-122142857D01*
X63761904Y-122047619D01*
X63809523Y-122000000D01*
X63904761Y-121952380D01*
%TO.C,R1*%
X68333333Y-116452380D02*
X68000000Y-115976190D01*
X67761904Y-116452380D02*
X67761904Y-115452380D01*
X68142857Y-115452380D01*
X68238095Y-115500000D01*
X68285714Y-115547619D01*
X68333333Y-115642857D01*
X68333333Y-115785714D01*
X68285714Y-115880952D01*
X68238095Y-115928571D01*
X68142857Y-115976190D01*
X67761904Y-115976190D01*
X69285714Y-116452380D02*
X68714285Y-116452380D01*
X69000000Y-116452380D02*
X69000000Y-115452380D01*
X68904761Y-115595238D01*
X68809523Y-115690476D01*
X68714285Y-115738095D01*
X66452380Y-114166666D02*
X66452380Y-114738095D01*
X66452380Y-114452380D02*
X65452380Y-114452380D01*
X65595238Y-114547619D01*
X65690476Y-114642857D01*
X65738095Y-114738095D01*
X65452380Y-113261904D02*
X65452380Y-113738095D01*
X65928571Y-113785714D01*
X65880952Y-113738095D01*
X65833333Y-113642857D01*
X65833333Y-113404761D01*
X65880952Y-113309523D01*
X65928571Y-113261904D01*
X66023809Y-113214285D01*
X66261904Y-113214285D01*
X66357142Y-113261904D01*
X66404761Y-113309523D01*
X66452380Y-113404761D01*
X66452380Y-113642857D01*
X66404761Y-113738095D01*
X66357142Y-113785714D01*
X65452380Y-112595238D02*
X65452380Y-112500000D01*
X65500000Y-112404761D01*
X65547619Y-112357142D01*
X65642857Y-112309523D01*
X65833333Y-112261904D01*
X66071428Y-112261904D01*
X66261904Y-112309523D01*
X66357142Y-112357142D01*
X66404761Y-112404761D01*
X66452380Y-112500000D01*
X66452380Y-112595238D01*
X66404761Y-112690476D01*
X66357142Y-112738095D01*
X66261904Y-112785714D01*
X66071428Y-112833333D01*
X65833333Y-112833333D01*
X65642857Y-112785714D01*
X65547619Y-112738095D01*
X65500000Y-112690476D01*
X65452380Y-112595238D01*
D12*
%TO.C,J5*%
X227980000Y-112200000D02*
X227980000Y-122950000D01*
X230680000Y-134390000D02*
X230680000Y-133390000D01*
X229290000Y-110900000D02*
X229290000Y-139100000D01*
X227980000Y-122950000D02*
X229290000Y-122950000D01*
X227980000Y-122950000D02*
X227980000Y-122950000D01*
X227980000Y-137800000D02*
X221480000Y-137800000D01*
X230680000Y-133390000D02*
X229680000Y-133890000D01*
X220170000Y-139100000D02*
X220170000Y-110900000D01*
X220170000Y-110900000D02*
X229290000Y-110900000D01*
X221480000Y-137800000D02*
X221480000Y-112200000D01*
X229290000Y-127050000D02*
X227980000Y-127050000D01*
X221480000Y-112200000D02*
X227980000Y-112200000D01*
X229290000Y-139100000D02*
X220170000Y-139100000D01*
X227980000Y-127050000D02*
X227980000Y-137800000D01*
X229680000Y-133890000D02*
X230680000Y-134390000D01*
%TO.C,J10*%
X77980000Y-112310000D02*
X77980000Y-123060000D01*
X80680000Y-134500000D02*
X80680000Y-133500000D01*
X79290000Y-111010000D02*
X79290000Y-139210000D01*
X77980000Y-123060000D02*
X79290000Y-123060000D01*
X77980000Y-123060000D02*
X77980000Y-123060000D01*
X77980000Y-137910000D02*
X71480000Y-137910000D01*
X80680000Y-133500000D02*
X79680000Y-134000000D01*
X70170000Y-139210000D02*
X70170000Y-111010000D01*
X70170000Y-111010000D02*
X79290000Y-111010000D01*
X71480000Y-137910000D02*
X71480000Y-112310000D01*
X79290000Y-127160000D02*
X77980000Y-127160000D01*
X71480000Y-112310000D02*
X77980000Y-112310000D01*
X79290000Y-139210000D02*
X70170000Y-139210000D01*
X77980000Y-127160000D02*
X77980000Y-137910000D01*
X79680000Y-134000000D02*
X80680000Y-134500000D01*
%TO.C,J9*%
X107980000Y-112310000D02*
X107980000Y-123060000D01*
X110680000Y-134500000D02*
X110680000Y-133500000D01*
X109290000Y-111010000D02*
X109290000Y-139210000D01*
X107980000Y-123060000D02*
X109290000Y-123060000D01*
X107980000Y-123060000D02*
X107980000Y-123060000D01*
X107980000Y-137910000D02*
X101480000Y-137910000D01*
X110680000Y-133500000D02*
X109680000Y-134000000D01*
X100170000Y-139210000D02*
X100170000Y-111010000D01*
X100170000Y-111010000D02*
X109290000Y-111010000D01*
X101480000Y-137910000D02*
X101480000Y-112310000D01*
X109290000Y-127160000D02*
X107980000Y-127160000D01*
X101480000Y-112310000D02*
X107980000Y-112310000D01*
X109290000Y-139210000D02*
X100170000Y-139210000D01*
X107980000Y-127160000D02*
X107980000Y-137910000D01*
X109680000Y-134000000D02*
X110680000Y-134500000D01*
%TO.C,J8*%
X137980000Y-112310000D02*
X137980000Y-123060000D01*
X140680000Y-134500000D02*
X140680000Y-133500000D01*
X139290000Y-111010000D02*
X139290000Y-139210000D01*
X137980000Y-123060000D02*
X139290000Y-123060000D01*
X137980000Y-123060000D02*
X137980000Y-123060000D01*
X137980000Y-137910000D02*
X131480000Y-137910000D01*
X140680000Y-133500000D02*
X139680000Y-134000000D01*
X130170000Y-139210000D02*
X130170000Y-111010000D01*
X130170000Y-111010000D02*
X139290000Y-111010000D01*
X131480000Y-137910000D02*
X131480000Y-112310000D01*
X139290000Y-127160000D02*
X137980000Y-127160000D01*
X131480000Y-112310000D02*
X137980000Y-112310000D01*
X139290000Y-139210000D02*
X130170000Y-139210000D01*
X137980000Y-127160000D02*
X137980000Y-137910000D01*
X139680000Y-134000000D02*
X140680000Y-134500000D01*
%TO.C,J7*%
X168520000Y-112310000D02*
X168520000Y-123060000D01*
X171220000Y-134500000D02*
X171220000Y-133500000D01*
X169830000Y-111010000D02*
X169830000Y-139210000D01*
X168520000Y-123060000D02*
X169830000Y-123060000D01*
X168520000Y-123060000D02*
X168520000Y-123060000D01*
X168520000Y-137910000D02*
X162020000Y-137910000D01*
X171220000Y-133500000D02*
X170220000Y-134000000D01*
X160710000Y-139210000D02*
X160710000Y-111010000D01*
X160710000Y-111010000D02*
X169830000Y-111010000D01*
X162020000Y-137910000D02*
X162020000Y-112310000D01*
X169830000Y-127160000D02*
X168520000Y-127160000D01*
X162020000Y-112310000D02*
X168520000Y-112310000D01*
X169830000Y-139210000D02*
X160710000Y-139210000D01*
X168520000Y-127160000D02*
X168520000Y-137910000D01*
X170220000Y-134000000D02*
X171220000Y-134500000D01*
%TO.C,J6*%
X198732500Y-112200000D02*
X198732500Y-122950000D01*
X201432500Y-134390000D02*
X201432500Y-133390000D01*
X200042500Y-110900000D02*
X200042500Y-139100000D01*
X198732500Y-122950000D02*
X200042500Y-122950000D01*
X198732500Y-122950000D02*
X198732500Y-122950000D01*
X198732500Y-137800000D02*
X192232500Y-137800000D01*
X201432500Y-133390000D02*
X200432500Y-133890000D01*
X190922500Y-139100000D02*
X190922500Y-110900000D01*
X190922500Y-110900000D02*
X200042500Y-110900000D01*
X192232500Y-137800000D02*
X192232500Y-112200000D01*
X200042500Y-127050000D02*
X198732500Y-127050000D01*
X192232500Y-112200000D02*
X198732500Y-112200000D01*
X200042500Y-139100000D02*
X190922500Y-139100000D01*
X198732500Y-127050000D02*
X198732500Y-137800000D01*
X200432500Y-133890000D02*
X201432500Y-134390000D01*
%TO.C,J4*%
X258732500Y-112200000D02*
X258732500Y-122950000D01*
X261432500Y-134390000D02*
X261432500Y-133390000D01*
X260042500Y-110900000D02*
X260042500Y-139100000D01*
X258732500Y-122950000D02*
X260042500Y-122950000D01*
X258732500Y-122950000D02*
X258732500Y-122950000D01*
X258732500Y-137800000D02*
X252232500Y-137800000D01*
X261432500Y-133390000D02*
X260432500Y-133890000D01*
X250922500Y-139100000D02*
X250922500Y-110900000D01*
X250922500Y-110900000D02*
X260042500Y-110900000D01*
X252232500Y-137800000D02*
X252232500Y-112200000D01*
X260042500Y-127050000D02*
X258732500Y-127050000D01*
X252232500Y-112200000D02*
X258732500Y-112200000D01*
X260042500Y-139100000D02*
X250922500Y-139100000D01*
X258732500Y-127050000D02*
X258732500Y-137800000D01*
X260432500Y-133890000D02*
X261432500Y-134390000D01*
%TO.C,J3*%
X288520000Y-112200000D02*
X288520000Y-122950000D01*
X291220000Y-134390000D02*
X291220000Y-133390000D01*
X289830000Y-110900000D02*
X289830000Y-139100000D01*
X288520000Y-122950000D02*
X289830000Y-122950000D01*
X288520000Y-122950000D02*
X288520000Y-122950000D01*
X288520000Y-137800000D02*
X282020000Y-137800000D01*
X291220000Y-133390000D02*
X290220000Y-133890000D01*
X280710000Y-139100000D02*
X280710000Y-110900000D01*
X280710000Y-110900000D02*
X289830000Y-110900000D01*
X282020000Y-137800000D02*
X282020000Y-112200000D01*
X289830000Y-127050000D02*
X288520000Y-127050000D01*
X282020000Y-112200000D02*
X288520000Y-112200000D01*
X289830000Y-139100000D02*
X280710000Y-139100000D01*
X288520000Y-127050000D02*
X288520000Y-137800000D01*
X290220000Y-133890000D02*
X291220000Y-134390000D01*
%TO.C,J2*%
X318732500Y-112200000D02*
X318732500Y-122950000D01*
X321432500Y-134390000D02*
X321432500Y-133390000D01*
X320042500Y-110900000D02*
X320042500Y-139100000D01*
X318732500Y-122950000D02*
X320042500Y-122950000D01*
X318732500Y-122950000D02*
X318732500Y-122950000D01*
X318732500Y-137800000D02*
X312232500Y-137800000D01*
X321432500Y-133390000D02*
X320432500Y-133890000D01*
X310922500Y-139100000D02*
X310922500Y-110900000D01*
X310922500Y-110900000D02*
X320042500Y-110900000D01*
X312232500Y-137800000D02*
X312232500Y-112200000D01*
X320042500Y-127050000D02*
X318732500Y-127050000D01*
X312232500Y-112200000D02*
X318732500Y-112200000D01*
X320042500Y-139100000D02*
X310922500Y-139100000D01*
X318732500Y-127050000D02*
X318732500Y-137800000D01*
X320432500Y-133890000D02*
X321432500Y-134390000D01*
%TO.C,J1*%
X346980000Y-112310000D02*
X346980000Y-123060000D01*
X349680000Y-134500000D02*
X349680000Y-133500000D01*
X348290000Y-111010000D02*
X348290000Y-139210000D01*
X346980000Y-123060000D02*
X348290000Y-123060000D01*
X346980000Y-123060000D02*
X346980000Y-123060000D01*
X346980000Y-137910000D02*
X340480000Y-137910000D01*
X349680000Y-133500000D02*
X348680000Y-134000000D01*
X339170000Y-139210000D02*
X339170000Y-111010000D01*
X339170000Y-111010000D02*
X348290000Y-111010000D01*
X340480000Y-137910000D02*
X340480000Y-112310000D01*
X348290000Y-127160000D02*
X346980000Y-127160000D01*
X340480000Y-112310000D02*
X346980000Y-112310000D01*
X348290000Y-139210000D02*
X339170000Y-139210000D01*
X346980000Y-127160000D02*
X346980000Y-137910000D01*
X348680000Y-134000000D02*
X349680000Y-134500000D01*
%TO.C,TP4*%
X55830000Y-137330000D02*
X54500000Y-137330000D01*
X55830000Y-134730000D02*
X53170000Y-134730000D01*
X55830000Y-134670000D02*
X53170000Y-134670000D01*
X53170000Y-134730000D02*
X53170000Y-134670000D01*
X55830000Y-134730000D02*
X55830000Y-134670000D01*
X55830000Y-136000000D02*
X55830000Y-137330000D01*
%TO.C,TP3*%
X55830000Y-123330000D02*
X54500000Y-123330000D01*
X55830000Y-120730000D02*
X53170000Y-120730000D01*
X55830000Y-120670000D02*
X53170000Y-120670000D01*
X53170000Y-120730000D02*
X53170000Y-120670000D01*
X55830000Y-120730000D02*
X55830000Y-120670000D01*
X55830000Y-122000000D02*
X55830000Y-123330000D01*
%TO.C,TP2*%
X55830000Y-116830000D02*
X54500000Y-116830000D01*
X55830000Y-114230000D02*
X53170000Y-114230000D01*
X55830000Y-114170000D02*
X53170000Y-114170000D01*
X53170000Y-114230000D02*
X53170000Y-114170000D01*
X55830000Y-114230000D02*
X55830000Y-114170000D01*
X55830000Y-115500000D02*
X55830000Y-116830000D01*
%TO.C,TP1*%
X55830000Y-131330000D02*
X54500000Y-131330000D01*
X55830000Y-128730000D02*
X53170000Y-128730000D01*
X55830000Y-128670000D02*
X53170000Y-128670000D01*
X53170000Y-128730000D02*
X53170000Y-128670000D01*
X55830000Y-128730000D02*
X55830000Y-128670000D01*
X55830000Y-130000000D02*
X55830000Y-131330000D01*
%TO.C,D3*%
X60264000Y-137565000D02*
X60420000Y-137565000D01*
X62580000Y-137565000D02*
X62736000Y-137565000D01*
X60420163Y-134963870D02*
G75*
G03*
X60420000Y-137045961I1079837J-1041130D01*
G01*
X62735516Y-137565000D02*
G75*
G03*
X62578608Y-134332665I-1235517J1560000D01*
G01*
X62580000Y-137045961D02*
G75*
G03*
X62579837Y-134963870I-1080000J1040961D01*
G01*
X60421392Y-134332665D02*
G75*
G03*
X60264484Y-137565000I1078609J-1672335D01*
G01*
%TO.C,D2*%
X60264000Y-128565000D02*
X60420000Y-128565000D01*
X62580000Y-128565000D02*
X62736000Y-128565000D01*
X60420163Y-125963870D02*
G75*
G03*
X60420000Y-128045961I1079837J-1041130D01*
G01*
X62735516Y-128565000D02*
G75*
G03*
X62578608Y-125332665I-1235517J1560000D01*
G01*
X62580000Y-128045961D02*
G75*
G03*
X62579837Y-125963870I-1080000J1040961D01*
G01*
X60421392Y-125332665D02*
G75*
G03*
X60264484Y-128565000I1078609J-1672335D01*
G01*
%TO.C,D1*%
X60421392Y-114057665D02*
G75*
G03*
X60264484Y-117290000I1078609J-1672335D01*
G01*
X62580000Y-116770961D02*
G75*
G03*
X62579837Y-114688870I-1080000J1040961D01*
G01*
X62735516Y-117290000D02*
G75*
G03*
X62578608Y-114057665I-1235517J1560000D01*
G01*
X60420163Y-114688870D02*
G75*
G03*
X60420000Y-116770961I1079837J-1041130D01*
G01*
X62580000Y-117290000D02*
X62736000Y-117290000D01*
X60264000Y-117290000D02*
X60420000Y-117290000D01*
%TO.C,R3*%
X67250000Y-132900000D02*
X67250000Y-139100000D01*
X64750000Y-132900000D02*
X67250000Y-132900000D01*
X67250000Y-139100000D02*
X64750000Y-139100000D01*
X64750000Y-139100000D02*
X64750000Y-132900000D01*
%TO.C,R2*%
X59900000Y-121250000D02*
X66100000Y-121250000D01*
X59900000Y-123750000D02*
X59900000Y-121250000D01*
X66100000Y-121250000D02*
X66100000Y-123750000D01*
X66100000Y-123750000D02*
X59900000Y-123750000D01*
%TO.C,R1*%
X67250000Y-110400000D02*
X67250000Y-116600000D01*
X64750000Y-110400000D02*
X67250000Y-110400000D01*
X67250000Y-116600000D02*
X64750000Y-116600000D01*
X64750000Y-116600000D02*
X64750000Y-110400000D01*
%TD*%
M02*
