M48
; DRILL file {KiCad (6.0.2)} date Sat Apr  2 12:49:48 2022
; FORMAT={-:-/ absolute / metric / decimal}
; #@! TF.CreationDate,2022-04-02T12:49:48+02:00
; #@! TF.GenerationSoftware,Kicad,Pcbnew,(6.0.2)
; #@! TF.FileFunction,Plated,1,2,PTH
FMAT,2
METRIC
; #@! TA.AperFunction,Plated,PTH,ComponentDrill
T1C0.762
; #@! TA.AperFunction,Plated,PTH,ComponentDrill
T2C0.900
; #@! TA.AperFunction,Plated,PTH,ComponentDrill
T3C1.000
%
G90
G05
T1
X59.0Y-122.5
X66.0Y-109.5
X66.0Y-117.5
X66.0Y-132.0
X66.0Y-140.0
X67.0Y-122.5
T2
X61.5Y-114.46
X61.5Y-117.0
X61.5Y-125.735
X61.5Y-128.275
X61.5Y-134.735
X61.5Y-137.275
T3
X54.5Y-115.5
X54.5Y-122.0
X54.5Y-130.0
X54.5Y-136.0
X73.46Y-116.22
X73.46Y-118.76
X73.46Y-121.3
X73.46Y-123.84
X73.46Y-126.38
X73.46Y-128.92
X73.46Y-131.46
X73.46Y-134.0
X76.0Y-116.22
X76.0Y-118.76
X76.0Y-121.3
X76.0Y-123.84
X76.0Y-126.38
X76.0Y-128.92
X76.0Y-131.46
X76.0Y-134.0
X103.46Y-116.22
X103.46Y-118.76
X103.46Y-121.3
X103.46Y-123.84
X103.46Y-126.38
X103.46Y-128.92
X103.46Y-131.46
X103.46Y-134.0
X106.0Y-116.22
X106.0Y-118.76
X106.0Y-121.3
X106.0Y-123.84
X106.0Y-126.38
X106.0Y-128.92
X106.0Y-131.46
X106.0Y-134.0
X133.46Y-116.22
X133.46Y-118.76
X133.46Y-121.3
X133.46Y-123.84
X133.46Y-126.38
X133.46Y-128.92
X133.46Y-131.46
X133.46Y-134.0
X136.0Y-116.22
X136.0Y-118.76
X136.0Y-121.3
X136.0Y-123.84
X136.0Y-126.38
X136.0Y-128.92
X136.0Y-131.46
X136.0Y-134.0
X164.0Y-116.22
X164.0Y-118.76
X164.0Y-121.3
X164.0Y-123.84
X164.0Y-126.38
X164.0Y-128.92
X164.0Y-131.46
X164.0Y-134.0
X166.54Y-116.22
X166.54Y-118.76
X166.54Y-121.3
X166.54Y-123.84
X166.54Y-126.38
X166.54Y-128.92
X166.54Y-131.46
X166.54Y-134.0
X194.212Y-116.11
X194.212Y-118.65
X194.212Y-121.19
X194.212Y-123.73
X194.212Y-126.27
X194.212Y-128.81
X194.212Y-131.35
X194.212Y-133.89
X196.752Y-116.11
X196.752Y-118.65
X196.752Y-121.19
X196.752Y-123.73
X196.752Y-126.27
X196.752Y-128.81
X196.752Y-131.35
X196.752Y-133.89
X223.46Y-116.11
X223.46Y-118.65
X223.46Y-121.19
X223.46Y-123.73
X223.46Y-126.27
X223.46Y-128.81
X223.46Y-131.35
X223.46Y-133.89
X226.0Y-116.11
X226.0Y-118.65
X226.0Y-121.19
X226.0Y-123.73
X226.0Y-126.27
X226.0Y-128.81
X226.0Y-131.35
X226.0Y-133.89
X254.212Y-116.11
X254.212Y-118.65
X254.212Y-121.19
X254.212Y-123.73
X254.212Y-126.27
X254.212Y-128.81
X254.212Y-131.35
X254.212Y-133.89
X256.752Y-116.11
X256.752Y-118.65
X256.752Y-121.19
X256.752Y-123.73
X256.752Y-126.27
X256.752Y-128.81
X256.752Y-131.35
X256.752Y-133.89
X284.0Y-116.11
X284.0Y-118.65
X284.0Y-121.19
X284.0Y-123.73
X284.0Y-126.27
X284.0Y-128.81
X284.0Y-131.35
X284.0Y-133.89
X286.54Y-116.11
X286.54Y-118.65
X286.54Y-121.19
X286.54Y-123.73
X286.54Y-126.27
X286.54Y-128.81
X286.54Y-131.35
X286.54Y-133.89
X314.212Y-116.11
X314.212Y-118.65
X314.212Y-121.19
X314.212Y-123.73
X314.212Y-126.27
X314.212Y-128.81
X314.212Y-131.35
X314.212Y-133.89
X316.752Y-116.11
X316.752Y-118.65
X316.752Y-121.19
X316.752Y-123.73
X316.752Y-126.27
X316.752Y-128.81
X316.752Y-131.35
X316.752Y-133.89
X342.46Y-116.22
X342.46Y-118.76
X342.46Y-121.3
X342.46Y-123.84
X342.46Y-126.38
X342.46Y-128.92
X342.46Y-131.46
X342.46Y-134.0
X345.0Y-116.22
X345.0Y-118.76
X345.0Y-121.3
X345.0Y-123.84
X345.0Y-126.38
X345.0Y-128.92
X345.0Y-131.46
X345.0Y-134.0
T0
M30
