%TF.GenerationSoftware,KiCad,Pcbnew,(6.0.2)*%
%TF.CreationDate,2022-04-02T12:49:41+02:00*%
%TF.ProjectId,Power Bus,506f7765-7220-4427-9573-2e6b69636164,1*%
%TF.SameCoordinates,Original*%
%TF.FileFunction,Copper,L1,Top*%
%TF.FilePolarity,Positive*%
%FSLAX46Y46*%
G04 Gerber Fmt 4.6, Leading zero omitted, Abs format (unit mm)*
G04 Created by KiCad (PCBNEW (6.0.2)) date 2022-04-02 12:49:41*
%MOMM*%
%LPD*%
G01*
G04 APERTURE LIST*
G04 Aperture macros list*
%AMRoundRect*
0 Rectangle with rounded corners*
0 $1 Rounding radius*
0 $2 $3 $4 $5 $6 $7 $8 $9 X,Y pos of 4 corners*
0 Add a 4 corners polygon primitive as box body*
4,1,4,$2,$3,$4,$5,$6,$7,$8,$9,$2,$3,0*
0 Add four circle primitives for the rounded corners*
1,1,$1+$1,$2,$3*
1,1,$1+$1,$4,$5*
1,1,$1+$1,$6,$7*
1,1,$1+$1,$8,$9*
0 Add four rect primitives between the rounded corners*
20,1,$1+$1,$2,$3,$4,$5,0*
20,1,$1+$1,$4,$5,$6,$7,0*
20,1,$1+$1,$6,$7,$8,$9,0*
20,1,$1+$1,$8,$9,$2,$3,0*%
G04 Aperture macros list end*
%TA.AperFunction,ComponentPad*%
%ADD10RoundRect,0.250000X0.600000X0.600000X-0.600000X0.600000X-0.600000X-0.600000X0.600000X-0.600000X0*%
%TD*%
%TA.AperFunction,ComponentPad*%
%ADD11C,1.700000*%
%TD*%
%TA.AperFunction,ComponentPad*%
%ADD12R,1.700000X1.700000*%
%TD*%
%TA.AperFunction,ComponentPad*%
%ADD13R,1.800000X1.800000*%
%TD*%
%TA.AperFunction,ComponentPad*%
%ADD14C,1.800000*%
%TD*%
%TA.AperFunction,ComponentPad*%
%ADD15C,1.600000*%
%TD*%
%TA.AperFunction,Conductor*%
%ADD16C,1.000000*%
%TD*%
%TA.AperFunction,Conductor*%
%ADD17C,1.500000*%
%TD*%
G04 APERTURE END LIST*
D10*
%TO.P,J5,1*%
%TO.N,Net-(J1-Pad1)*%
X226000000Y-133890000D03*
D11*
%TO.P,J5,2*%
X223460000Y-133890000D03*
%TO.P,J5,3*%
%TO.N,GND*%
X226000000Y-131350000D03*
%TO.P,J5,4*%
X223460000Y-131350000D03*
%TO.P,J5,5*%
X226000000Y-128810000D03*
%TO.P,J5,6*%
X223460000Y-128810000D03*
%TO.P,J5,7*%
X226000000Y-126270000D03*
%TO.P,J5,8*%
X223460000Y-126270000D03*
%TO.P,J5,9*%
%TO.N,Net-(J1-Pad10)*%
X226000000Y-123730000D03*
%TO.P,J5,10*%
X223460000Y-123730000D03*
%TO.P,J5,11*%
%TO.N,Net-(J1-Pad11)*%
X226000000Y-121190000D03*
%TO.P,J5,12*%
X223460000Y-121190000D03*
%TO.P,J5,13*%
%TO.N,Net-(J10-Pad13)*%
X226000000Y-118650000D03*
%TO.P,J5,14*%
X223460000Y-118650000D03*
%TO.P,J5,15*%
%TO.N,Net-(J1-Pad15)*%
X226000000Y-116110000D03*
%TO.P,J5,16*%
X223460000Y-116110000D03*
%TD*%
D10*
%TO.P,J10,1*%
%TO.N,Net-(J1-Pad1)*%
X76000000Y-134000000D03*
D11*
%TO.P,J10,2*%
X73460000Y-134000000D03*
%TO.P,J10,3*%
%TO.N,GND*%
X76000000Y-131460000D03*
%TO.P,J10,4*%
X73460000Y-131460000D03*
%TO.P,J10,5*%
X76000000Y-128920000D03*
%TO.P,J10,6*%
X73460000Y-128920000D03*
%TO.P,J10,7*%
X76000000Y-126380000D03*
%TO.P,J10,8*%
X73460000Y-126380000D03*
%TO.P,J10,9*%
%TO.N,Net-(J1-Pad10)*%
X76000000Y-123840000D03*
%TO.P,J10,10*%
X73460000Y-123840000D03*
%TO.P,J10,11*%
%TO.N,Net-(J1-Pad11)*%
X76000000Y-121300000D03*
%TO.P,J10,12*%
X73460000Y-121300000D03*
%TO.P,J10,13*%
%TO.N,Net-(J10-Pad13)*%
X76000000Y-118760000D03*
%TO.P,J10,14*%
X73460000Y-118760000D03*
%TO.P,J10,15*%
%TO.N,Net-(J1-Pad15)*%
X76000000Y-116220000D03*
%TO.P,J10,16*%
X73460000Y-116220000D03*
%TD*%
D10*
%TO.P,J9,1*%
%TO.N,Net-(J1-Pad1)*%
X106000000Y-134000000D03*
D11*
%TO.P,J9,2*%
X103460000Y-134000000D03*
%TO.P,J9,3*%
%TO.N,GND*%
X106000000Y-131460000D03*
%TO.P,J9,4*%
X103460000Y-131460000D03*
%TO.P,J9,5*%
X106000000Y-128920000D03*
%TO.P,J9,6*%
X103460000Y-128920000D03*
%TO.P,J9,7*%
X106000000Y-126380000D03*
%TO.P,J9,8*%
X103460000Y-126380000D03*
%TO.P,J9,9*%
%TO.N,Net-(J1-Pad10)*%
X106000000Y-123840000D03*
%TO.P,J9,10*%
X103460000Y-123840000D03*
%TO.P,J9,11*%
%TO.N,Net-(J1-Pad11)*%
X106000000Y-121300000D03*
%TO.P,J9,12*%
X103460000Y-121300000D03*
%TO.P,J9,13*%
%TO.N,Net-(J10-Pad13)*%
X106000000Y-118760000D03*
%TO.P,J9,14*%
X103460000Y-118760000D03*
%TO.P,J9,15*%
%TO.N,Net-(J1-Pad15)*%
X106000000Y-116220000D03*
%TO.P,J9,16*%
X103460000Y-116220000D03*
%TD*%
D10*
%TO.P,J8,1*%
%TO.N,Net-(J1-Pad1)*%
X136000000Y-134000000D03*
D11*
%TO.P,J8,2*%
X133460000Y-134000000D03*
%TO.P,J8,3*%
%TO.N,GND*%
X136000000Y-131460000D03*
%TO.P,J8,4*%
X133460000Y-131460000D03*
%TO.P,J8,5*%
X136000000Y-128920000D03*
%TO.P,J8,6*%
X133460000Y-128920000D03*
%TO.P,J8,7*%
X136000000Y-126380000D03*
%TO.P,J8,8*%
X133460000Y-126380000D03*
%TO.P,J8,9*%
%TO.N,Net-(J1-Pad10)*%
X136000000Y-123840000D03*
%TO.P,J8,10*%
X133460000Y-123840000D03*
%TO.P,J8,11*%
%TO.N,Net-(J1-Pad11)*%
X136000000Y-121300000D03*
%TO.P,J8,12*%
X133460000Y-121300000D03*
%TO.P,J8,13*%
%TO.N,Net-(J10-Pad13)*%
X136000000Y-118760000D03*
%TO.P,J8,14*%
X133460000Y-118760000D03*
%TO.P,J8,15*%
%TO.N,Net-(J1-Pad15)*%
X136000000Y-116220000D03*
%TO.P,J8,16*%
X133460000Y-116220000D03*
%TD*%
D10*
%TO.P,J7,1*%
%TO.N,Net-(J1-Pad1)*%
X166540000Y-134000000D03*
D11*
%TO.P,J7,2*%
X164000000Y-134000000D03*
%TO.P,J7,3*%
%TO.N,GND*%
X166540000Y-131460000D03*
%TO.P,J7,4*%
X164000000Y-131460000D03*
%TO.P,J7,5*%
X166540000Y-128920000D03*
%TO.P,J7,6*%
X164000000Y-128920000D03*
%TO.P,J7,7*%
X166540000Y-126380000D03*
%TO.P,J7,8*%
X164000000Y-126380000D03*
%TO.P,J7,9*%
%TO.N,Net-(J1-Pad10)*%
X166540000Y-123840000D03*
%TO.P,J7,10*%
X164000000Y-123840000D03*
%TO.P,J7,11*%
%TO.N,Net-(J1-Pad11)*%
X166540000Y-121300000D03*
%TO.P,J7,12*%
X164000000Y-121300000D03*
%TO.P,J7,13*%
%TO.N,Net-(J10-Pad13)*%
X166540000Y-118760000D03*
%TO.P,J7,14*%
X164000000Y-118760000D03*
%TO.P,J7,15*%
%TO.N,Net-(J1-Pad15)*%
X166540000Y-116220000D03*
%TO.P,J7,16*%
X164000000Y-116220000D03*
%TD*%
D10*
%TO.P,J6,1*%
%TO.N,Net-(J1-Pad1)*%
X196752500Y-133890000D03*
D11*
%TO.P,J6,2*%
X194212500Y-133890000D03*
%TO.P,J6,3*%
%TO.N,GND*%
X196752500Y-131350000D03*
%TO.P,J6,4*%
X194212500Y-131350000D03*
%TO.P,J6,5*%
X196752500Y-128810000D03*
%TO.P,J6,6*%
X194212500Y-128810000D03*
%TO.P,J6,7*%
X196752500Y-126270000D03*
%TO.P,J6,8*%
X194212500Y-126270000D03*
%TO.P,J6,9*%
%TO.N,Net-(J1-Pad10)*%
X196752500Y-123730000D03*
%TO.P,J6,10*%
X194212500Y-123730000D03*
%TO.P,J6,11*%
%TO.N,Net-(J1-Pad11)*%
X196752500Y-121190000D03*
%TO.P,J6,12*%
X194212500Y-121190000D03*
%TO.P,J6,13*%
%TO.N,Net-(J10-Pad13)*%
X196752500Y-118650000D03*
%TO.P,J6,14*%
X194212500Y-118650000D03*
%TO.P,J6,15*%
%TO.N,Net-(J1-Pad15)*%
X196752500Y-116110000D03*
%TO.P,J6,16*%
X194212500Y-116110000D03*
%TD*%
D10*
%TO.P,J4,1*%
%TO.N,Net-(J1-Pad1)*%
X256752500Y-133890000D03*
D11*
%TO.P,J4,2*%
X254212500Y-133890000D03*
%TO.P,J4,3*%
%TO.N,GND*%
X256752500Y-131350000D03*
%TO.P,J4,4*%
X254212500Y-131350000D03*
%TO.P,J4,5*%
X256752500Y-128810000D03*
%TO.P,J4,6*%
X254212500Y-128810000D03*
%TO.P,J4,7*%
X256752500Y-126270000D03*
%TO.P,J4,8*%
X254212500Y-126270000D03*
%TO.P,J4,9*%
%TO.N,Net-(J1-Pad10)*%
X256752500Y-123730000D03*
%TO.P,J4,10*%
X254212500Y-123730000D03*
%TO.P,J4,11*%
%TO.N,Net-(J1-Pad11)*%
X256752500Y-121190000D03*
%TO.P,J4,12*%
X254212500Y-121190000D03*
%TO.P,J4,13*%
%TO.N,Net-(J10-Pad13)*%
X256752500Y-118650000D03*
%TO.P,J4,14*%
X254212500Y-118650000D03*
%TO.P,J4,15*%
%TO.N,Net-(J1-Pad15)*%
X256752500Y-116110000D03*
%TO.P,J4,16*%
X254212500Y-116110000D03*
%TD*%
D10*
%TO.P,J3,1*%
%TO.N,Net-(J1-Pad1)*%
X286540000Y-133890000D03*
D11*
%TO.P,J3,2*%
X284000000Y-133890000D03*
%TO.P,J3,3*%
%TO.N,GND*%
X286540000Y-131350000D03*
%TO.P,J3,4*%
X284000000Y-131350000D03*
%TO.P,J3,5*%
X286540000Y-128810000D03*
%TO.P,J3,6*%
X284000000Y-128810000D03*
%TO.P,J3,7*%
X286540000Y-126270000D03*
%TO.P,J3,8*%
X284000000Y-126270000D03*
%TO.P,J3,9*%
%TO.N,Net-(J1-Pad10)*%
X286540000Y-123730000D03*
%TO.P,J3,10*%
X284000000Y-123730000D03*
%TO.P,J3,11*%
%TO.N,Net-(J1-Pad11)*%
X286540000Y-121190000D03*
%TO.P,J3,12*%
X284000000Y-121190000D03*
%TO.P,J3,13*%
%TO.N,Net-(J10-Pad13)*%
X286540000Y-118650000D03*
%TO.P,J3,14*%
X284000000Y-118650000D03*
%TO.P,J3,15*%
%TO.N,Net-(J1-Pad15)*%
X286540000Y-116110000D03*
%TO.P,J3,16*%
X284000000Y-116110000D03*
%TD*%
D10*
%TO.P,J2,1*%
%TO.N,Net-(J1-Pad1)*%
X316752500Y-133890000D03*
D11*
%TO.P,J2,2*%
X314212500Y-133890000D03*
%TO.P,J2,3*%
%TO.N,GND*%
X316752500Y-131350000D03*
%TO.P,J2,4*%
X314212500Y-131350000D03*
%TO.P,J2,5*%
X316752500Y-128810000D03*
%TO.P,J2,6*%
X314212500Y-128810000D03*
%TO.P,J2,7*%
X316752500Y-126270000D03*
%TO.P,J2,8*%
X314212500Y-126270000D03*
%TO.P,J2,9*%
%TO.N,Net-(J1-Pad10)*%
X316752500Y-123730000D03*
%TO.P,J2,10*%
X314212500Y-123730000D03*
%TO.P,J2,11*%
%TO.N,Net-(J1-Pad11)*%
X316752500Y-121190000D03*
%TO.P,J2,12*%
X314212500Y-121190000D03*
%TO.P,J2,13*%
%TO.N,Net-(J10-Pad13)*%
X316752500Y-118650000D03*
%TO.P,J2,14*%
X314212500Y-118650000D03*
%TO.P,J2,15*%
%TO.N,Net-(J1-Pad15)*%
X316752500Y-116110000D03*
%TO.P,J2,16*%
X314212500Y-116110000D03*
%TD*%
D10*
%TO.P,J1,1*%
%TO.N,Net-(J1-Pad1)*%
X345000000Y-134000000D03*
D11*
%TO.P,J1,2*%
X342460000Y-134000000D03*
%TO.P,J1,3*%
%TO.N,GND*%
X345000000Y-131460000D03*
%TO.P,J1,4*%
X342460000Y-131460000D03*
%TO.P,J1,5*%
X345000000Y-128920000D03*
%TO.P,J1,6*%
X342460000Y-128920000D03*
%TO.P,J1,7*%
X345000000Y-126380000D03*
%TO.P,J1,8*%
X342460000Y-126380000D03*
%TO.P,J1,9*%
%TO.N,Net-(J1-Pad10)*%
X345000000Y-123840000D03*
%TO.P,J1,10*%
X342460000Y-123840000D03*
%TO.P,J1,11*%
%TO.N,Net-(J1-Pad11)*%
X345000000Y-121300000D03*
%TO.P,J1,12*%
X342460000Y-121300000D03*
%TO.P,J1,13*%
%TO.N,Net-(J10-Pad13)*%
X345000000Y-118760000D03*
%TO.P,J1,14*%
X342460000Y-118760000D03*
%TO.P,J1,15*%
%TO.N,Net-(J1-Pad15)*%
X345000000Y-116220000D03*
%TO.P,J1,16*%
X342460000Y-116220000D03*
%TD*%
D12*
%TO.P,TP4,1,1*%
%TO.N,Net-(J1-Pad1)*%
X54500000Y-136000000D03*
%TD*%
%TO.P,TP3,1,1*%
%TO.N,Net-(J1-Pad10)*%
X54500000Y-122000000D03*
%TD*%
%TO.P,TP2,1,1*%
%TO.N,Net-(J1-Pad11)*%
X54500000Y-115500000D03*
%TD*%
%TO.P,TP1,1,1*%
%TO.N,GND*%
X54500000Y-130000000D03*
%TD*%
D13*
%TO.P,D3,1,K*%
%TO.N,Net-(D3-Pad1)*%
X61500000Y-137275000D03*
D14*
%TO.P,D3,2,A*%
%TO.N,GND*%
X61500000Y-134735000D03*
%TD*%
D13*
%TO.P,D2,1,K*%
%TO.N,GND*%
X61500000Y-128275000D03*
D14*
%TO.P,D2,2,A*%
%TO.N,Net-(D2-Pad2)*%
X61500000Y-125735000D03*
%TD*%
%TO.P,D1,2,A*%
%TO.N,Net-(D1-Pad2)*%
X61500000Y-114460000D03*
D13*
%TO.P,D1,1,K*%
%TO.N,GND*%
X61500000Y-117000000D03*
%TD*%
D15*
%TO.P,R3,2*%
%TO.N,Net-(J1-Pad1)*%
X66000000Y-132000000D03*
%TO.P,R3,1*%
%TO.N,Net-(D3-Pad1)*%
X66000000Y-140000000D03*
%TD*%
%TO.P,R2,1*%
%TO.N,Net-(D2-Pad2)*%
X59000000Y-122500000D03*
%TO.P,R2,2*%
%TO.N,Net-(J1-Pad10)*%
X67000000Y-122500000D03*
%TD*%
%TO.P,R1,2*%
%TO.N,Net-(J1-Pad11)*%
X66000000Y-109500000D03*
%TO.P,R1,1*%
%TO.N,Net-(D1-Pad2)*%
X66000000Y-117500000D03*
%TD*%
D16*
%TO.N,Net-(D2-Pad2)*%
X61500000Y-123500000D02*
X61500000Y-125735000D01*
X60500000Y-122500000D02*
X61500000Y-123500000D01*
X59000000Y-122500000D02*
X60500000Y-122500000D01*
%TO.N,Net-(J1-Pad10)*%
X67000000Y-123500000D02*
X67340000Y-123840000D01*
X67340000Y-123840000D02*
X73460000Y-123840000D01*
X67000000Y-122500000D02*
X67000000Y-123500000D01*
X66000000Y-120000000D02*
X55500000Y-120000000D01*
X55500000Y-120000000D02*
X54500000Y-121000000D01*
X67000000Y-121000000D02*
X66000000Y-120000000D01*
X54500000Y-121000000D02*
X54500000Y-122000000D01*
X67000000Y-122500000D02*
X67000000Y-121000000D01*
D17*
%TO.N,Net-(J10-Pad13)*%
X223460000Y-118650000D02*
X196752500Y-118650000D01*
X226000000Y-118650000D02*
X223460000Y-118650000D01*
X254212500Y-118650000D02*
X226000000Y-118650000D01*
X256752500Y-118650000D02*
X254212500Y-118650000D01*
%TO.N,Net-(J1-Pad1)*%
X342460000Y-134000000D02*
X345000000Y-134000000D01*
X316862500Y-134000000D02*
X342460000Y-134000000D01*
X316752500Y-133890000D02*
X316862500Y-134000000D01*
X314212500Y-133890000D02*
X316752500Y-133890000D01*
X286540000Y-133890000D02*
X314212500Y-133890000D01*
%TO.N,Net-(J1-Pad10)*%
X314212500Y-123730000D02*
X286540000Y-123730000D01*
X316752500Y-123730000D02*
X314212500Y-123730000D01*
X316862500Y-123840000D02*
X316752500Y-123730000D01*
X342460000Y-123840000D02*
X316862500Y-123840000D01*
X345000000Y-123840000D02*
X342460000Y-123840000D01*
%TO.N,Net-(J1-Pad11)*%
X342460000Y-121300000D02*
X345000000Y-121300000D01*
X342350000Y-121190000D02*
X342460000Y-121300000D01*
X316752500Y-121190000D02*
X342350000Y-121190000D01*
X314212500Y-121190000D02*
X316752500Y-121190000D01*
X286540000Y-121190000D02*
X314212500Y-121190000D01*
%TO.N,Net-(J10-Pad13)*%
X284000000Y-118650000D02*
X256752500Y-118650000D01*
X284000000Y-118650000D02*
X286540000Y-118650000D01*
X314212500Y-118650000D02*
X286540000Y-118650000D01*
X316752500Y-118650000D02*
X314212500Y-118650000D01*
X316862500Y-118760000D02*
X316752500Y-118650000D01*
X342460000Y-118760000D02*
X316862500Y-118760000D01*
X345000000Y-118760000D02*
X342460000Y-118760000D01*
%TO.N,Net-(J1-Pad15)*%
X345000000Y-116220000D02*
X342460000Y-116220000D01*
X314212500Y-116110000D02*
X286540000Y-116110000D01*
X316752500Y-116110000D02*
X314212500Y-116110000D01*
X316862500Y-116220000D02*
X316752500Y-116110000D01*
X342460000Y-116220000D02*
X316862500Y-116220000D01*
%TO.N,Net-(J1-Pad1)*%
X284000000Y-133890000D02*
X286540000Y-133890000D01*
X256752500Y-133890000D02*
X284000000Y-133890000D01*
X254212500Y-133890000D02*
X256752500Y-133890000D01*
X226000000Y-133890000D02*
X254212500Y-133890000D01*
X223460000Y-133890000D02*
X226000000Y-133890000D01*
X196752500Y-133890000D02*
X223460000Y-133890000D01*
%TO.N,Net-(J1-Pad10)*%
X223460000Y-123730000D02*
X196752500Y-123730000D01*
X226000000Y-123730000D02*
X223460000Y-123730000D01*
X254212500Y-123730000D02*
X226000000Y-123730000D01*
X256752500Y-123730000D02*
X254212500Y-123730000D01*
X284000000Y-123730000D02*
X256752500Y-123730000D01*
X286540000Y-123730000D02*
X284000000Y-123730000D01*
%TO.N,Net-(J1-Pad11)*%
X284000000Y-121190000D02*
X286540000Y-121190000D01*
X256752500Y-121190000D02*
X284000000Y-121190000D01*
X254212500Y-121190000D02*
X256752500Y-121190000D01*
X226000000Y-121190000D02*
X254212500Y-121190000D01*
X223460000Y-121190000D02*
X226000000Y-121190000D01*
X196752500Y-121190000D02*
X223460000Y-121190000D01*
%TO.N,Net-(J1-Pad15)*%
X284000000Y-116110000D02*
X286540000Y-116110000D01*
X256752500Y-116110000D02*
X284000000Y-116110000D01*
X254212500Y-116110000D02*
X256752500Y-116110000D01*
X226000000Y-116110000D02*
X254212500Y-116110000D01*
X223460000Y-116110000D02*
X226000000Y-116110000D01*
X196752500Y-116110000D02*
X223460000Y-116110000D01*
%TO.N,Net-(J1-Pad1)*%
X194212500Y-133890000D02*
X196752500Y-133890000D01*
X166540000Y-134000000D02*
X166650000Y-133890000D01*
X166650000Y-133890000D02*
X194212500Y-133890000D01*
X164000000Y-134000000D02*
X166540000Y-134000000D01*
X136000000Y-134000000D02*
X164000000Y-134000000D01*
%TO.N,Net-(J1-Pad10)*%
X194212500Y-123730000D02*
X196752500Y-123730000D01*
X166540000Y-123840000D02*
X194102500Y-123840000D01*
X194102500Y-123840000D02*
X194212500Y-123730000D01*
X164000000Y-123840000D02*
X166540000Y-123840000D01*
X136000000Y-123840000D02*
X164000000Y-123840000D01*
%TO.N,Net-(J1-Pad11)*%
X194212500Y-121190000D02*
X196752500Y-121190000D01*
X194102500Y-121300000D02*
X194212500Y-121190000D01*
X166540000Y-121300000D02*
X194102500Y-121300000D01*
X164000000Y-121300000D02*
X166540000Y-121300000D01*
X136000000Y-121300000D02*
X164000000Y-121300000D01*
%TO.N,Net-(J10-Pad13)*%
X194212500Y-118650000D02*
X196752500Y-118650000D01*
X194102500Y-118760000D02*
X194212500Y-118650000D01*
X166540000Y-118760000D02*
X194102500Y-118760000D01*
X164000000Y-118760000D02*
X166540000Y-118760000D01*
X136000000Y-118760000D02*
X164000000Y-118760000D01*
%TO.N,Net-(J1-Pad15)*%
X194212500Y-116110000D02*
X196752500Y-116110000D01*
X194102500Y-116220000D02*
X194212500Y-116110000D01*
X166540000Y-116220000D02*
X194102500Y-116220000D01*
X164000000Y-116220000D02*
X166540000Y-116220000D01*
X136000000Y-116220000D02*
X164000000Y-116220000D01*
%TO.N,Net-(J1-Pad1)*%
X133460000Y-134000000D02*
X136000000Y-134000000D01*
%TO.N,Net-(J1-Pad10)*%
X133460000Y-123840000D02*
X136000000Y-123840000D01*
%TO.N,Net-(J1-Pad11)*%
X133460000Y-121300000D02*
X136000000Y-121300000D01*
%TO.N,Net-(J10-Pad13)*%
X133460000Y-118760000D02*
X136000000Y-118760000D01*
%TO.N,Net-(J1-Pad15)*%
X133460000Y-116220000D02*
X136000000Y-116220000D01*
%TO.N,Net-(J1-Pad1)*%
X106000000Y-134000000D02*
X133460000Y-134000000D01*
%TO.N,Net-(J1-Pad10)*%
X106000000Y-123840000D02*
X133460000Y-123840000D01*
%TO.N,Net-(J1-Pad11)*%
X106000000Y-121300000D02*
X133460000Y-121300000D01*
%TO.N,Net-(J10-Pad13)*%
X106000000Y-118760000D02*
X133460000Y-118760000D01*
%TO.N,Net-(J1-Pad1)*%
X103460000Y-134000000D02*
X106000000Y-134000000D01*
%TO.N,Net-(J1-Pad10)*%
X103460000Y-123840000D02*
X106000000Y-123840000D01*
%TO.N,Net-(J1-Pad11)*%
X103460000Y-121300000D02*
X106000000Y-121300000D01*
%TO.N,Net-(J10-Pad13)*%
X103460000Y-118760000D02*
X106000000Y-118760000D01*
%TO.N,Net-(J1-Pad15)*%
X103460000Y-116220000D02*
X106000000Y-116220000D01*
X106000000Y-116220000D02*
X133460000Y-116220000D01*
X76000000Y-116220000D02*
X73460000Y-116220000D01*
X103460000Y-116220000D02*
X76000000Y-116220000D01*
%TO.N,Net-(J10-Pad13)*%
X76000000Y-118760000D02*
X73460000Y-118760000D01*
X103460000Y-118760000D02*
X76000000Y-118760000D01*
%TO.N,Net-(J1-Pad11)*%
X76000000Y-121300000D02*
X73460000Y-121300000D01*
X103460000Y-121300000D02*
X76000000Y-121300000D01*
%TO.N,Net-(J1-Pad1)*%
X76000000Y-134000000D02*
X73460000Y-134000000D01*
X103460000Y-134000000D02*
X76000000Y-134000000D01*
%TO.N,Net-(J1-Pad10)*%
X76000000Y-123840000D02*
X103460000Y-123840000D01*
X73460000Y-123840000D02*
X76000000Y-123840000D01*
D16*
%TO.N,Net-(J1-Pad11)*%
X54500000Y-112500000D02*
X54500000Y-115500000D01*
X56000000Y-111000000D02*
X54500000Y-112500000D01*
X58000000Y-111000000D02*
X56000000Y-111000000D01*
X66000000Y-109500000D02*
X59500000Y-109500000D01*
X59500000Y-109500000D02*
X58000000Y-111000000D01*
X69000000Y-120500000D02*
X69800000Y-121300000D01*
X69800000Y-121300000D02*
X73460000Y-121300000D01*
X69000000Y-110500000D02*
X69000000Y-120500000D01*
X68000000Y-109500000D02*
X69000000Y-110500000D01*
X66000000Y-109500000D02*
X68000000Y-109500000D01*
%TO.N,Net-(D1-Pad2)*%
X66000000Y-115000000D02*
X66000000Y-117500000D01*
X65460000Y-114460000D02*
X66000000Y-115000000D01*
X61500000Y-114460000D02*
X65460000Y-114460000D01*
%TO.N,Net-(J1-Pad1)*%
X55000000Y-140000000D02*
X54500000Y-139500000D01*
X56500000Y-140000000D02*
X55000000Y-140000000D01*
X59000000Y-142500000D02*
X56500000Y-140000000D01*
X72500000Y-142500000D02*
X59000000Y-142500000D01*
X54500000Y-139500000D02*
X54500000Y-136000000D01*
X73460000Y-141540000D02*
X72500000Y-142500000D01*
X73460000Y-134000000D02*
X73460000Y-141540000D01*
X68000000Y-134000000D02*
X66000000Y-132000000D01*
X73460000Y-134000000D02*
X68000000Y-134000000D01*
%TO.N,Net-(D3-Pad1)*%
X63275000Y-137275000D02*
X66000000Y-140000000D01*
X61500000Y-137275000D02*
X63275000Y-137275000D01*
%TD*%
M02*
