%TF.GenerationSoftware,KiCad,Pcbnew,(6.0.2)*%
%TF.CreationDate,2022-04-02T12:49:41+02:00*%
%TF.ProjectId,Power Bus,506f7765-7220-4427-9573-2e6b69636164,1*%
%TF.SameCoordinates,Original*%
%TF.FileFunction,Soldermask,Bot*%
%TF.FilePolarity,Negative*%
%FSLAX46Y46*%
G04 Gerber Fmt 4.6, Leading zero omitted, Abs format (unit mm)*
G04 Created by KiCad (PCBNEW (6.0.2)) date 2022-04-02 12:49:41*
%MOMM*%
%LPD*%
G01*
G04 APERTURE LIST*
G04 Aperture macros list*
%AMRoundRect*
0 Rectangle with rounded corners*
0 $1 Rounding radius*
0 $2 $3 $4 $5 $6 $7 $8 $9 X,Y pos of 4 corners*
0 Add a 4 corners polygon primitive as box body*
4,1,4,$2,$3,$4,$5,$6,$7,$8,$9,$2,$3,0*
0 Add four circle primitives for the rounded corners*
1,1,$1+$1,$2,$3*
1,1,$1+$1,$4,$5*
1,1,$1+$1,$6,$7*
1,1,$1+$1,$8,$9*
0 Add four rect primitives between the rounded corners*
20,1,$1+$1,$2,$3,$4,$5,0*
20,1,$1+$1,$4,$5,$6,$7,0*
20,1,$1+$1,$6,$7,$8,$9,0*
20,1,$1+$1,$8,$9,$2,$3,0*%
G04 Aperture macros list end*
%ADD10RoundRect,0.250000X0.600000X0.600000X-0.600000X0.600000X-0.600000X-0.600000X0.600000X-0.600000X0*%
%ADD11C,1.700000*%
%ADD12C,3.200000*%
%ADD13R,1.700000X1.700000*%
%ADD14R,1.800000X1.800000*%
%ADD15C,1.800000*%
%ADD16C,1.600000*%
G04 APERTURE END LIST*
D10*
%TO.C,J5*%
X226000000Y-133890000D03*
D11*
X223460000Y-133890000D03*
X226000000Y-131350000D03*
X223460000Y-131350000D03*
X226000000Y-128810000D03*
X223460000Y-128810000D03*
X226000000Y-126270000D03*
X223460000Y-126270000D03*
X226000000Y-123730000D03*
X223460000Y-123730000D03*
X226000000Y-121190000D03*
X223460000Y-121190000D03*
X226000000Y-118650000D03*
X223460000Y-118650000D03*
X226000000Y-116110000D03*
X223460000Y-116110000D03*
%TD*%
D12*
%TO.C,REF\u002A\u002A*%
X150000000Y-105000000D03*
%TD*%
%TO.C,REF\u002A\u002A*%
X150000000Y-145000000D03*
%TD*%
%TO.C,REF\u002A\u002A*%
X250000000Y-105000000D03*
%TD*%
%TO.C,REF\u002A\u002A*%
X249963521Y-144999999D03*
%TD*%
%TO.C,REF\u002A\u002A*%
X345000000Y-105000000D03*
%TD*%
%TO.C,REF\u002A\u002A*%
X345000000Y-145000000D03*
%TD*%
%TO.C,REF\u002A\u002A*%
X55000000Y-105000000D03*
%TD*%
%TO.C,REF\u002A\u002A*%
X55000000Y-145000000D03*
%TD*%
D10*
%TO.C,J10*%
X76000000Y-134000000D03*
D11*
X73460000Y-134000000D03*
X76000000Y-131460000D03*
X73460000Y-131460000D03*
X76000000Y-128920000D03*
X73460000Y-128920000D03*
X76000000Y-126380000D03*
X73460000Y-126380000D03*
X76000000Y-123840000D03*
X73460000Y-123840000D03*
X76000000Y-121300000D03*
X73460000Y-121300000D03*
X76000000Y-118760000D03*
X73460000Y-118760000D03*
X76000000Y-116220000D03*
X73460000Y-116220000D03*
%TD*%
D10*
%TO.C,J9*%
X106000000Y-134000000D03*
D11*
X103460000Y-134000000D03*
X106000000Y-131460000D03*
X103460000Y-131460000D03*
X106000000Y-128920000D03*
X103460000Y-128920000D03*
X106000000Y-126380000D03*
X103460000Y-126380000D03*
X106000000Y-123840000D03*
X103460000Y-123840000D03*
X106000000Y-121300000D03*
X103460000Y-121300000D03*
X106000000Y-118760000D03*
X103460000Y-118760000D03*
X106000000Y-116220000D03*
X103460000Y-116220000D03*
%TD*%
D10*
%TO.C,J8*%
X136000000Y-134000000D03*
D11*
X133460000Y-134000000D03*
X136000000Y-131460000D03*
X133460000Y-131460000D03*
X136000000Y-128920000D03*
X133460000Y-128920000D03*
X136000000Y-126380000D03*
X133460000Y-126380000D03*
X136000000Y-123840000D03*
X133460000Y-123840000D03*
X136000000Y-121300000D03*
X133460000Y-121300000D03*
X136000000Y-118760000D03*
X133460000Y-118760000D03*
X136000000Y-116220000D03*
X133460000Y-116220000D03*
%TD*%
D10*
%TO.C,J7*%
X166540000Y-134000000D03*
D11*
X164000000Y-134000000D03*
X166540000Y-131460000D03*
X164000000Y-131460000D03*
X166540000Y-128920000D03*
X164000000Y-128920000D03*
X166540000Y-126380000D03*
X164000000Y-126380000D03*
X166540000Y-123840000D03*
X164000000Y-123840000D03*
X166540000Y-121300000D03*
X164000000Y-121300000D03*
X166540000Y-118760000D03*
X164000000Y-118760000D03*
X166540000Y-116220000D03*
X164000000Y-116220000D03*
%TD*%
D10*
%TO.C,J6*%
X196752500Y-133890000D03*
D11*
X194212500Y-133890000D03*
X196752500Y-131350000D03*
X194212500Y-131350000D03*
X196752500Y-128810000D03*
X194212500Y-128810000D03*
X196752500Y-126270000D03*
X194212500Y-126270000D03*
X196752500Y-123730000D03*
X194212500Y-123730000D03*
X196752500Y-121190000D03*
X194212500Y-121190000D03*
X196752500Y-118650000D03*
X194212500Y-118650000D03*
X196752500Y-116110000D03*
X194212500Y-116110000D03*
%TD*%
D10*
%TO.C,J4*%
X256752500Y-133890000D03*
D11*
X254212500Y-133890000D03*
X256752500Y-131350000D03*
X254212500Y-131350000D03*
X256752500Y-128810000D03*
X254212500Y-128810000D03*
X256752500Y-126270000D03*
X254212500Y-126270000D03*
X256752500Y-123730000D03*
X254212500Y-123730000D03*
X256752500Y-121190000D03*
X254212500Y-121190000D03*
X256752500Y-118650000D03*
X254212500Y-118650000D03*
X256752500Y-116110000D03*
X254212500Y-116110000D03*
%TD*%
D10*
%TO.C,J3*%
X286540000Y-133890000D03*
D11*
X284000000Y-133890000D03*
X286540000Y-131350000D03*
X284000000Y-131350000D03*
X286540000Y-128810000D03*
X284000000Y-128810000D03*
X286540000Y-126270000D03*
X284000000Y-126270000D03*
X286540000Y-123730000D03*
X284000000Y-123730000D03*
X286540000Y-121190000D03*
X284000000Y-121190000D03*
X286540000Y-118650000D03*
X284000000Y-118650000D03*
X286540000Y-116110000D03*
X284000000Y-116110000D03*
%TD*%
D10*
%TO.C,J2*%
X316752500Y-133890000D03*
D11*
X314212500Y-133890000D03*
X316752500Y-131350000D03*
X314212500Y-131350000D03*
X316752500Y-128810000D03*
X314212500Y-128810000D03*
X316752500Y-126270000D03*
X314212500Y-126270000D03*
X316752500Y-123730000D03*
X314212500Y-123730000D03*
X316752500Y-121190000D03*
X314212500Y-121190000D03*
X316752500Y-118650000D03*
X314212500Y-118650000D03*
X316752500Y-116110000D03*
X314212500Y-116110000D03*
%TD*%
D10*
%TO.C,J1*%
X345000000Y-134000000D03*
D11*
X342460000Y-134000000D03*
X345000000Y-131460000D03*
X342460000Y-131460000D03*
X345000000Y-128920000D03*
X342460000Y-128920000D03*
X345000000Y-126380000D03*
X342460000Y-126380000D03*
X345000000Y-123840000D03*
X342460000Y-123840000D03*
X345000000Y-121300000D03*
X342460000Y-121300000D03*
X345000000Y-118760000D03*
X342460000Y-118760000D03*
X345000000Y-116220000D03*
X342460000Y-116220000D03*
%TD*%
D13*
%TO.C,TP4*%
X54500000Y-136000000D03*
%TD*%
%TO.C,TP3*%
X54500000Y-122000000D03*
%TD*%
%TO.C,TP2*%
X54500000Y-115500000D03*
%TD*%
%TO.C,TP1*%
X54500000Y-130000000D03*
%TD*%
D14*
%TO.C,D3*%
X61500000Y-137275000D03*
D15*
X61500000Y-134735000D03*
%TD*%
D14*
%TO.C,D2*%
X61500000Y-128275000D03*
D15*
X61500000Y-125735000D03*
%TD*%
%TO.C,D1*%
X61500000Y-114460000D03*
D14*
X61500000Y-117000000D03*
%TD*%
D16*
%TO.C,R3*%
X66000000Y-132000000D03*
X66000000Y-140000000D03*
%TD*%
%TO.C,R2*%
X59000000Y-122500000D03*
X67000000Y-122500000D03*
%TD*%
%TO.C,R1*%
X66000000Y-109500000D03*
X66000000Y-117500000D03*
%TD*%
M02*
